<svg id="Layer_1" data-name="Layer 1" xmlns="http://www.w3.org/2000/svg" viewBox="0 0 693.7 314.1"><defs><style>.cls-1,.cls-12,.cls-16,.cls-6,.cls-7{fill:#848484;}.cls-1{opacity:0.28;}.cls-1,.cls-10,.cls-12,.cls-16,.cls-19,.cls-20,.cls-22,.cls-24,.cls-3,.cls-34,.cls-7{isolation:isolate;}.cls-2,.cls-3{fill:#f09f54;}.cls-16,.cls-26,.cls-3{opacity:0.29;}.cls-15,.cls-18,.cls-25,.cls-28,.cls-29,.cls-30,.cls-31,.cls-32,.cls-34,.cls-36,.cls-4,.cls-5{fill:none;stroke-linecap:round;stroke-linejoin:round;}.cls-15,.cls-18,.cls-4,.cls-5{stroke:#464f5a;}.cls-25,.cls-28,.cls-29,.cls-30,.cls-31,.cls-32,.cls-4{stroke-width:4px;}.cls-34,.cls-36,.cls-5{stroke-width:3px;}.cls-7{opacity:0.25;}.cls-8{fill:#fff;}.cls-10,.cls-9{fill:#71a84f;}.cls-10{opacity:0.4;}.cls-11{fill:#464f5a;}.cls-12{opacity:0.48;}.cls-13{fill:#e9f7fc;}.cls-14{fill:#c9c9c9;}.cls-15{stroke-width:5px;}.cls-17{opacity:0.3;}.cls-18{stroke-width:2px;stroke-dasharray:4.08 4.08;}.cls-19{fill:#5f8c41;}.cls-19,.cls-20,.cls-22,.cls-24{opacity:0.52;}.cls-20{fill:#d38444;}.cls-21{fill:#42a7de;}.cls-22{fill:#2790bd;}.cls-23{fill:#e6544f;}.cls-24{fill:#c04141;}.cls-25,.cls-34,.cls-36{stroke:#fff;}.cls-27{fill:#bcbcbc;}.cls-28{stroke:#75b9e6;}.cls-29{stroke:#f16062;}.cls-30{stroke:#fcbe79;}.cls-31{stroke:#ab86bd;}.cls-32{stroke:#6dc07c;}.cls-33{fill:#9583bd;}.cls-34,.cls-35{opacity:0.56;}</style></defs><title>fast</title><g id="_Group_" data-name="&lt;Group&gt;"><path id="_Path_" data-name="&lt;Path&gt;" class="cls-1" d="M634.8,553.3H-40.8a9,9,0,0,1-9-9h0a9,9,0,0,1,9-9H634.9a9,9,0,0,1,9,9h0A9.11,9.11,0,0,1,634.8,553.3Z" transform="translate(49.8 -239.2)"/><g id="_Group_2" data-name="&lt;Group&gt;"><path id="_Compound_Path_" data-name="&lt;Compound Path&gt;" class="cls-2" d="M605.5,460.9a71.51,71.51,0,0,0-64.7-71.3v-8.4H518.9V541.9h21.9v-9.7A71.59,71.59,0,0,0,605.5,460.9Zm-64.8,48.2V412.8A49,49,0,0,1,582.5,461C582.5,485.4,564.1,505.7,540.7,509.1Z" transform="translate(49.8 -239.2)"/><path id="_Compound_Path_2" data-name="&lt;Compound Path&gt;" class="cls-3" d="M540.7,389.6v-8.4H518.8V541.9h21.9v-9.7a71.64,71.64,0,0,0,0-142.6Zm0,135.2v8.3H520.2V388.5h20.5V397c32.1,3.1,58,30.5,58,63.9S572.9,521.7,540.7,524.8Z" transform="translate(49.8 -239.2)"/><path id="_Compound_Path_3" data-name="&lt;Compound Path&gt;" class="cls-4" d="M605.5,460.9a71.51,71.51,0,0,0-64.7-71.3v-8.4H518.9V541.9h21.9v-9.7A71.59,71.59,0,0,0,605.5,460.9Zm-64.8,48.2V412.8A49,49,0,0,1,582.5,461C582.5,485.4,564.1,505.7,540.7,509.1Z" transform="translate(49.8 -239.2)"/><g id="_Group_3" data-name="&lt;Group&gt;"><g id="_Group_4" data-name="&lt;Group&gt;"><line id="_Path_2" data-name="&lt;Path&gt;" class="cls-5" x1="577.4" y1="286.6" x2="568.6" y2="286.6"/></g><g id="_Group_5" data-name="&lt;Group&gt;"><line id="_Path_3" data-name="&lt;Path&gt;" class="cls-5" x1="577.4" y1="270.6" x2="568.6" y2="270.6"/></g><g id="_Group_6" data-name="&lt;Group&gt;"><line id="_Path_4" data-name="&lt;Path&gt;" class="cls-5" x1="577.4" y1="254.5" x2="568.6" y2="254.5"/></g><g id="_Group_7" data-name="&lt;Group&gt;"><line id="_Path_5" data-name="&lt;Path&gt;" class="cls-5" x1="577.4" y1="238.4" x2="568.6" y2="238.4"/></g><g id="_Group_8" data-name="&lt;Group&gt;"><line id="_Path_6" data-name="&lt;Path&gt;" class="cls-5" x1="577.4" y1="222.4" x2="568.6" y2="222.4"/></g><g id="_Group_9" data-name="&lt;Group&gt;"><line id="_Path_7" data-name="&lt;Path&gt;" class="cls-5" x1="577.4" y1="206.3" x2="568.6" y2="206.3"/></g><g id="_Group_10" data-name="&lt;Group&gt;"><line id="_Path_8" data-name="&lt;Path&gt;" class="cls-5" x1="577.4" y1="190.2" x2="568.6" y2="190.2"/></g><g id="_Group_11" data-name="&lt;Group&gt;"><line id="_Path_9" data-name="&lt;Path&gt;" class="cls-5" x1="577.4" y1="174.1" x2="568.6" y2="174.1"/></g><g id="_Group_12" data-name="&lt;Group&gt;"><line id="_Path_10" data-name="&lt;Path&gt;" class="cls-5" x1="577.4" y1="158.1" x2="568.6" y2="158.1"/></g></g></g><g id="_Group_13" data-name="&lt;Group&gt;"><rect id="_Path_11" data-name="&lt;Path&gt;" class="cls-2" x="520.1" y="60.7" width="33.1" height="241.6"/><rect id="_Path_12" data-name="&lt;Path&gt;" class="cls-2" x="520.1" y="60.7" width="33.1" height="241.6"/><rect id="_Path_13" data-name="&lt;Path&gt;" class="cls-3" x="538.8" y="60.7" width="14.4" height="241.6"/><rect id="_Path_14" data-name="&lt;Path&gt;" class="cls-4" x="520.1" y="60.7" width="33.1" height="241.6"/><g id="_Group_14" data-name="&lt;Group&gt;"><g id="_Group_15" data-name="&lt;Group&gt;"><line id="_Path_15" data-name="&lt;Path&gt;" class="cls-5" x1="531.6" y1="277.9" x2="520.1" y2="277.9"/><line id="_Path_16" data-name="&lt;Path&gt;" class="cls-5" x1="527.2" y1="289.4" x2="520.1" y2="289.4"/></g><g id="_Group_16" data-name="&lt;Group&gt;"><line id="_Path_17" data-name="&lt;Path&gt;" class="cls-5" x1="531.6" y1="254.9" x2="520.1" y2="254.9"/><line id="_Path_18" data-name="&lt;Path&gt;" class="cls-5" x1="527.2" y1="266.4" x2="520.1" y2="266.4"/></g><g id="_Group_17" data-name="&lt;Group&gt;"><line id="_Path_19" data-name="&lt;Path&gt;" class="cls-5" x1="531.6" y1="231.9" x2="520.1" y2="231.9"/><line id="_Path_20" data-name="&lt;Path&gt;" class="cls-5" x1="527.2" y1="243.4" x2="520.1" y2="243.4"/></g><g id="_Group_18" data-name="&lt;Group&gt;"><line id="_Path_21" data-name="&lt;Path&gt;" class="cls-5" x1="531.6" y1="208.8" x2="520.1" y2="208.8"/><line id="_Path_22" data-name="&lt;Path&gt;" class="cls-5" x1="527.2" y1="220.3" x2="520.1" y2="220.3"/></g><g id="_Group_19" data-name="&lt;Group&gt;"><line id="_Path_23" data-name="&lt;Path&gt;" class="cls-5" x1="531.6" y1="185.8" x2="520.1" y2="185.8"/><line id="_Path_24" data-name="&lt;Path&gt;" class="cls-5" x1="527.2" y1="197.3" x2="520.1" y2="197.3"/></g><g id="_Group_20" data-name="&lt;Group&gt;"><line id="_Path_25" data-name="&lt;Path&gt;" class="cls-5" x1="531.6" y1="162.8" x2="520.1" y2="162.8"/><line id="_Path_26" data-name="&lt;Path&gt;" class="cls-5" x1="527.2" y1="174.3" x2="520.1" y2="174.3"/></g><g id="_Group_21" data-name="&lt;Group&gt;"><line id="_Path_27" data-name="&lt;Path&gt;" class="cls-5" x1="531.6" y1="139.8" x2="520.1" y2="139.8"/><line id="_Path_28" data-name="&lt;Path&gt;" class="cls-5" x1="527.2" y1="151.3" x2="520.1" y2="151.3"/></g><g id="_Group_22" data-name="&lt;Group&gt;"><line id="_Path_29" data-name="&lt;Path&gt;" class="cls-5" x1="531.6" y1="116.8" x2="520.1" y2="116.8"/><line id="_Path_30" data-name="&lt;Path&gt;" class="cls-5" x1="527.2" y1="128.3" x2="520.1" y2="128.3"/></g><g id="_Group_23" data-name="&lt;Group&gt;"><line id="_Path_31" data-name="&lt;Path&gt;" class="cls-5" x1="531.6" y1="93.8" x2="520.1" y2="93.8"/><line id="_Path_32" data-name="&lt;Path&gt;" class="cls-5" x1="527.2" y1="105.3" x2="520.1" y2="105.3"/></g><g id="_Group_24" data-name="&lt;Group&gt;"><line id="_Path_33" data-name="&lt;Path&gt;" class="cls-5" x1="531.6" y1="70.8" x2="520.1" y2="70.8"/><line id="_Path_34" data-name="&lt;Path&gt;" class="cls-5" x1="527.2" y1="82.3" x2="520.1" y2="82.3"/></g></g></g><g id="_Group_25" data-name="&lt;Group&gt;"><rect id="_Path_35" data-name="&lt;Path&gt;" class="cls-6" x="458.9" y="119.1" width="12.9" height="34.1"/><rect id="_Path_36" data-name="&lt;Path&gt;" class="cls-7" x="458.9" y="119.1" width="4.8" height="34.1"/><rect id="_Path_37" data-name="&lt;Path&gt;" class="cls-4" x="458.9" y="119.1" width="12.9" height="34.1"/><rect id="_Path_38" data-name="&lt;Path&gt;" class="cls-8" x="462.4" y="153.3" width="5.9" height="16.5"/><rect id="_Path_39" data-name="&lt;Path&gt;" class="cls-4" x="462.4" y="153.3" width="5.9" height="16.5"/><g id="_Group_26" data-name="&lt;Group&gt;"><polygon id="_Path_40" data-name="&lt;Path&gt;" class="cls-8" points="455.4 184.5 425.4 302.2 471 186.1 455.4 184.5"/><polygon id="_Path_41" data-name="&lt;Path&gt;" class="cls-4" points="455.4 184.5 425.4 302.2 471 186.1 455.4 184.5"/><polygon id="_Path_42" data-name="&lt;Path&gt;" class="cls-8" points="475.4 184.5 505.4 302.2 459.9 186.1 475.4 184.5"/><polygon id="_Path_43" data-name="&lt;Path&gt;" class="cls-4" points="475.4 184.5 505.4 302.2 459.9 186.1 475.4 184.5"/></g><circle id="_Path_44" data-name="&lt;Path&gt;" class="cls-9" cx="465.4" cy="187.6" r="20"/><path id="_Path_45" data-name="&lt;Path&gt;" class="cls-10" d="M401.2,426.8A20,20,0,0,1,418.4,407a24.59,24.59,0,0,0-2.8-.2,20,20,0,0,0,0,40,26.34,26.34,0,0,0,2.8-.2A20,20,0,0,1,401.2,426.8Z" transform="translate(49.8 -239.2)"/><circle id="_Path_46" data-name="&lt;Path&gt;" class="cls-4" cx="465.4" cy="187.6" r="20"/><circle id="_Path_47" data-name="&lt;Path&gt;" class="cls-11" cx="465.4" cy="187.6" r="6.8"/><circle id="_Path_48" data-name="&lt;Path&gt;" class="cls-4" cx="465.4" cy="187.6" r="6.8"/></g><path id="_Path_49" data-name="&lt;Path&gt;" class="cls-6" d="M343.4,541.2h-132a14,14,0,0,1-14-14v-272a14,14,0,0,1,14-14h132a14,14,0,0,1,14,14v272A14,14,0,0,1,343.4,541.2Z" transform="translate(49.8 -239.2)"/><path id="_Path_50" data-name="&lt;Path&gt;" class="cls-1" d="M343.4,241.2H335a14,14,0,0,1,14,14v272a14,14,0,0,1-14,14h8.5a14,14,0,0,0,14-14v-272A14.13,14.13,0,0,0,343.4,241.2Z" transform="translate(49.8 -239.2)"/><path id="_Path_51" data-name="&lt;Path&gt;" class="cls-12" d="M205.7,527.2v-272a14,14,0,0,1,14-14h-8.3a14,14,0,0,0-14,14v272a14,14,0,0,0,14,14h8.3A14,14,0,0,1,205.7,527.2Z" transform="translate(49.8 -239.2)"/><path id="_Path_52" data-name="&lt;Path&gt;" class="cls-4" d="M343.4,541.2h-132a14,14,0,0,1-14-14v-272a14,14,0,0,1,14-14h132a14,14,0,0,1,14,14v272A14,14,0,0,1,343.4,541.2Z" transform="translate(49.8 -239.2)"/><rect id="_Path_53" data-name="&lt;Path&gt;" class="cls-13" x="247.22" y="39.49" width="160" height="224"/><path id="_Path_54" data-name="&lt;Path&gt;" class="cls-14" d="M356.6,350.9H344.1a12.29,12.29,0,0,1-12.3-12.3V308.1a12.29,12.29,0,0,1,12.3-12.3h12.5Z" transform="translate(49.8 -239.2)"/><path id="_Path_55" data-name="&lt;Path&gt;" class="cls-14" d="M206.6,474.5h-9.2V377.2h9.2a12.5,12.5,0,0,1,12.5,12.5V462A12.57,12.57,0,0,1,206.6,474.5Z" transform="translate(49.8 -239.2)"/><rect id="_Path_56" data-name="&lt;Path&gt;" class="cls-4" x="247.22" y="39.49" width="160" height="224"/><g id="_Group_27" data-name="&lt;Group&gt;"><line id="_Path_57" data-name="&lt;Path&gt;" class="cls-15" x1="349.2" y1="22" x2="356.2" y2="22"/><line id="_Path_58" data-name="&lt;Path&gt;" class="cls-15" x1="298.2" y1="22" x2="338.2" y2="22"/></g><g id="_Group_28" data-name="&lt;Group&gt;"><circle id="_Path_59" data-name="&lt;Path&gt;" class="cls-16" cx="327.2" cy="280.4" r="11"/><circle id="_Path_60" data-name="&lt;Path&gt;" class="cls-11" cx="327.2" cy="280.4" r="8.4"/></g><g id="_Group_29" data-name="&lt;Group&gt;" class="cls-17"><g id="_Group_30" data-name="&lt;Group&gt;"><g id="_Group_31" data-name="&lt;Group&gt;"><path class="cls-18" d="M240.9,475.9h-16a8,8,0,0,1-8-8v-16a8,8,0,0,1,8-8h16a8,8,0,0,1,8,8v16A8,8,0,0,1,240.9,475.9Z" transform="translate(49.8 -239.2)"/></g><g id="_Group_32" data-name="&lt;Group&gt;"><path class="cls-18" d="M329.4,475.9h-16a8,8,0,0,1-8-8v-16a8,8,0,0,1,8-8h16a8,8,0,0,1,8,8v16A8,8,0,0,1,329.4,475.9Z" transform="translate(49.8 -239.2)"/></g><g id="_Group_33" data-name="&lt;Group&gt;"><path class="cls-18" d="M285.4,475.9h-16a8,8,0,0,1-8-8v-16a8,8,0,0,1,8-8h16a8,8,0,0,1,8,8v16A8,8,0,0,1,285.4,475.9Z" transform="translate(49.8 -239.2)"/></g></g><g id="_Group_34" data-name="&lt;Group&gt;"><g id="_Group_35" data-name="&lt;Group&gt;"><path class="cls-18" d="M240.9,427.9h-16a8,8,0,0,1-8-8v-16a8,8,0,0,1,8-8h16a8,8,0,0,1,8,8v16A8,8,0,0,1,240.9,427.9Z" transform="translate(49.8 -239.2)"/></g><g id="_Group_36" data-name="&lt;Group&gt;"><path class="cls-18" d="M329.4,427.9h-16a8,8,0,0,1-8-8v-16a8,8,0,0,1,8-8h16a8,8,0,0,1,8,8v16A8,8,0,0,1,329.4,427.9Z" transform="translate(49.8 -239.2)"/></g><g id="_Group_37" data-name="&lt;Group&gt;"><path class="cls-18" d="M285.4,427.9h-16a8,8,0,0,1-8-8v-16a8,8,0,0,1,8-8h16a8,8,0,0,1,8,8v16A8,8,0,0,1,285.4,427.9Z" transform="translate(49.8 -239.2)"/></g></g><g id="_Group_38" data-name="&lt;Group&gt;"><g id="_Group_39" data-name="&lt;Group&gt;"><path class="cls-18" d="M240.9,379.9h-16a8,8,0,0,1-8-8v-16a8,8,0,0,1,8-8h16a8,8,0,0,1,8,8v16A8,8,0,0,1,240.9,379.9Z" transform="translate(49.8 -239.2)"/></g><g id="_Group_40" data-name="&lt;Group&gt;"><path class="cls-18" d="M329.4,379.9h-16a8,8,0,0,1-8-8v-16a8,8,0,0,1,8-8h16a8,8,0,0,1,8,8v16A8,8,0,0,1,329.4,379.9Z" transform="translate(49.8 -239.2)"/></g><g id="_Group_41" data-name="&lt;Group&gt;"><path class="cls-18" d="M285.4,379.9h-16a8,8,0,0,1-8-8v-16a8,8,0,0,1,8-8h16a8,8,0,0,1,8,8v16A8,8,0,0,1,285.4,379.9Z" transform="translate(49.8 -239.2)"/></g></g><g id="_Group_42" data-name="&lt;Group&gt;"><g id="_Group_43" data-name="&lt;Group&gt;"><path class="cls-18" d="M240.9,331.9h-16a8,8,0,0,1-8-8v-16a8,8,0,0,1,8-8h16a8,8,0,0,1,8,8v16A8,8,0,0,1,240.9,331.9Z" transform="translate(49.8 -239.2)"/></g><g id="_Group_44" data-name="&lt;Group&gt;"><path class="cls-18" d="M329.4,331.9h-16a8,8,0,0,1-8-8v-16a8,8,0,0,1,8-8h16a8,8,0,0,1,8,8v16A8,8,0,0,1,329.4,331.9Z" transform="translate(49.8 -239.2)"/></g><g id="_Group_45" data-name="&lt;Group&gt;"><path class="cls-18" d="M285.4,331.9h-16a8,8,0,0,1-8-8v-16a8,8,0,0,1,8-8h16a8,8,0,0,1,8,8v16A8,8,0,0,1,285.4,331.9Z" transform="translate(49.8 -239.2)"/></g></g></g><path id="_Path_61" data-name="&lt;Path&gt;" class="cls-9" d="M240.9,475.9h-16a8,8,0,0,1-8-8v-16a8,8,0,0,1,8-8h16a8,8,0,0,1,8,8v16A8,8,0,0,1,240.9,475.9Z" transform="translate(49.8 -239.2)"/><path id="_Path_62" data-name="&lt;Path&gt;" class="cls-19" d="M240.9,443.9h-16a7.89,7.89,0,0,0-7.2,4.6l31.2,5.6v-2.2A8,8,0,0,0,240.9,443.9Z" transform="translate(49.8 -239.2)"/><path id="_Path_63" data-name="&lt;Path&gt;" class="cls-4" d="M240.9,475.9h-16a8,8,0,0,1-8-8v-16a8,8,0,0,1,8-8h16a8,8,0,0,1,8,8v16A8,8,0,0,1,240.9,475.9Z" transform="translate(49.8 -239.2)"/><path id="_Path_64" data-name="&lt;Path&gt;" class="cls-2" d="M285.4,475.9h-16a8,8,0,0,1-8-8v-16a8,8,0,0,1,8-8h16a8,8,0,0,1,8,8v16A8,8,0,0,1,285.4,475.9Z" transform="translate(49.8 -239.2)"/><path id="_Path_65" data-name="&lt;Path&gt;" class="cls-20" d="M285.4,443.9h-16a7.89,7.89,0,0,0-7.2,4.6l31.2,5.6v-2.2A8,8,0,0,0,285.4,443.9Z" transform="translate(49.8 -239.2)"/><path id="_Path_66" data-name="&lt;Path&gt;" class="cls-4" d="M285.4,475.9h-16a8,8,0,0,1-8-8v-16a8,8,0,0,1,8-8h16a8,8,0,0,1,8,8v16A8,8,0,0,1,285.4,475.9Z" transform="translate(49.8 -239.2)"/><g id="_Group_46" data-name="&lt;Group&gt;"><path id="_Path_67" data-name="&lt;Path&gt;" class="cls-21" d="M329.4,427.9h-16a8,8,0,0,1-8-8v-16a8,8,0,0,1,8-8h16a8,8,0,0,1,8,8v16A8,8,0,0,1,329.4,427.9Z" transform="translate(49.8 -239.2)"/></g><path id="_Path_68" data-name="&lt;Path&gt;" class="cls-22" d="M329.4,395.9h-16a7.89,7.89,0,0,0-7.2,4.6l31.2,5.6v-2.2A8,8,0,0,0,329.4,395.9Z" transform="translate(49.8 -239.2)"/><g id="_Group_47" data-name="&lt;Group&gt;"><path id="_Path_69" data-name="&lt;Path&gt;" class="cls-4" d="M329.4,427.9h-16a8,8,0,0,1-8-8v-16a8,8,0,0,1,8-8h16a8,8,0,0,1,8,8v16A8,8,0,0,1,329.4,427.9Z" transform="translate(49.8 -239.2)"/></g><g id="_Group_48" data-name="&lt;Group&gt;"><path id="_Path_70" data-name="&lt;Path&gt;" class="cls-23" d="M285.4,379.9h-16a8,8,0,0,1-8-8v-16a8,8,0,0,1,8-8h16a8,8,0,0,1,8,8v16A8,8,0,0,1,285.4,379.9Z" transform="translate(49.8 -239.2)"/></g><path id="_Path_71" data-name="&lt;Path&gt;" class="cls-24" d="M285.4,347.9h-16a7.89,7.89,0,0,0-7.2,4.6l31.2,5.6v-2.2A8,8,0,0,0,285.4,347.9Z" transform="translate(49.8 -239.2)"/><g id="_Group_49" data-name="&lt;Group&gt;"><path id="_Path_72" data-name="&lt;Path&gt;" class="cls-4" d="M285.4,379.9h-16a8,8,0,0,1-8-8v-16a8,8,0,0,1,8-8h16a8,8,0,0,1,8,8v16A8,8,0,0,1,285.4,379.9Z" transform="translate(49.8 -239.2)"/></g><path id="_Path_73" data-name="&lt;Path&gt;" class="cls-8" d="M318.8,404.9l9.2,5.3a2,2,0,0,1,0,3.4l-9.2,5.3a2,2,0,0,1-3-1.7V406.6A2,2,0,0,1,318.8,404.9Z" transform="translate(49.8 -239.2)"/><path id="_Path_74" data-name="&lt;Path&gt;" class="cls-8" d="M281.6,453.7h-8.4a3.22,3.22,0,0,0-3.2,3.2v6.2a3.22,3.22,0,0,0,3.2,3.2h.3l-.7,2.8c-.1.2.2.4.4.2l4.3-3h4.3a3.22,3.22,0,0,0,3.2-3.2v-6.2A3.4,3.4,0,0,0,281.6,453.7Z" transform="translate(49.8 -239.2)"/><path id="_Path_75" data-name="&lt;Path&gt;" class="cls-25" d="M226.7,459.9l3.7,3.7a1.27,1.27,0,0,0,1.8,0l8.3-8.3" transform="translate(49.8 -239.2)"/><circle id="_Path_76" data-name="&lt;Path&gt;" class="cls-25" cx="327.2" cy="124.7" r="7.5"/><g id="_Group_50" data-name="&lt;Group&gt;"><path id="_Compound_Path_4" data-name="&lt;Compound Path&gt;" class="cls-8" d="M217,324.9l-.2-15-10,.1a25,25,0,0,0-2.3-5.3l7-7.2L200.8,287l-7,7.2a25.21,25.21,0,0,0-5.4-2.1l-.1-10-15,.2.1,10a25,25,0,0,0-5.3,2.3l-7.2-7-10.5,10.7,7.2,7a25.21,25.21,0,0,0-2.1,5.4l-10,.1.2,15,10-.1A25,25,0,0,0,158,331l-7,7.2,10.7,10.5,7-7.2a25.21,25.21,0,0,0,5.4,2.1l.1,10,15-.2-.1-10a25,25,0,0,0,5.3-2.3l7.2,7,10.5-10.7-7.2-7A25.21,25.21,0,0,0,207,325Zm-35.5,4.6a11.7,11.7,0,1,1,11.6-11.8A11.78,11.78,0,0,1,181.5,329.5Z" transform="translate(49.8 -239.2)"/><path id="_Compound_Path_5" data-name="&lt;Compound Path&gt;" class="cls-2" d="M217,324.9l-.2-15-10,.1a25,25,0,0,0-2.3-5.3l7-7.2L200.8,287l-7,7.2a25.21,25.21,0,0,0-5.4-2.1l-.1-10-15,.2.1,10a25,25,0,0,0-5.3,2.3l-7.2-7-10.5,10.7,7.2,7a25.21,25.21,0,0,0-2.1,5.4l-10,.1.2,15,10-.1A25,25,0,0,0,158,331l-7,7.2,10.7,10.5,7-7.2a25.21,25.21,0,0,0,5.4,2.1l.1,10,15-.2-.1-10a25,25,0,0,0,5.3-2.3l7.2,7,10.5-10.7-7.2-7A25.21,25.21,0,0,0,207,325Zm-35.5,4.6a11.7,11.7,0,1,1,11.6-11.8A11.78,11.78,0,0,1,181.5,329.5Z" transform="translate(49.8 -239.2)"/><path id="_Compound_Path_6" data-name="&lt;Compound Path&gt;" class="cls-2" d="M217,324.9l-.2-15-10,.1a25,25,0,0,0-2.3-5.3l7-7.2L200.8,287l-7,7.2a25.21,25.21,0,0,0-5.4-2.1l-.1-10-15,.2.1,10a25,25,0,0,0-5.3,2.3l-7.2-7-10.5,10.7,7.2,7a25.21,25.21,0,0,0-2.1,5.4l-10,.1.2,15,10-.1A25,25,0,0,0,158,331l-7,7.2,10.7,10.5,7-7.2a25.21,25.21,0,0,0,5.4,2.1l.1,10,15-.2-.1-10a25,25,0,0,0,5.3-2.3l7.2,7,10.5-10.7-7.2-7A25.21,25.21,0,0,0,207,325Zm-35.5,4.6a11.7,11.7,0,1,1,11.6-11.8A11.78,11.78,0,0,1,181.5,329.5Z" transform="translate(49.8 -239.2)"/><g id="_Group_51" data-name="&lt;Group&gt;" class="cls-26"><path id="_Path_77" data-name="&lt;Path&gt;" class="cls-2" d="M213.2,310h3.7v-.1Z" transform="translate(49.8 -239.2)"/><path id="_Path_78" data-name="&lt;Path&gt;" class="cls-2" d="M200.2,294.3l3.9-4-3.2-3.2-5.2,5.3A22.52,22.52,0,0,1,200.2,294.3Z" transform="translate(49.8 -239.2)"/><path id="_Path_79" data-name="&lt;Path&gt;" class="cls-2" d="M187.5,306.1a13.61,13.61,0,0,0-3,.4,11.58,11.58,0,0,1,8.5,11.1,11.73,11.73,0,0,1-8.5,11.4,9.08,9.08,0,0,0,3.3.4,11.65,11.65,0,1,0-.3-23.3Z" transform="translate(49.8 -239.2)"/><path id="_Path_80" data-name="&lt;Path&gt;" class="cls-2" d="M172.6,292.6l2,1.9a31.42,31.42,0,0,1,5.3-2.3l-.1-10,8.6-.1V282l-15,.2.1,10A2.47,2.47,0,0,1,172.6,292.6Z" transform="translate(49.8 -239.2)"/><path id="_Path_81" data-name="&lt;Path&gt;" class="cls-2" d="M180.4,343.5a25.21,25.21,0,0,1-5.4-2.1l-1.8,1.9.9.3.1,10,6.3-.1Z" transform="translate(49.8 -239.2)"/><path id="_Path_82" data-name="&lt;Path&gt;" class="cls-2" d="M152,310.7l10-.1a25.21,25.21,0,0,1,2.1-5.4l-7.2-7,7.4-7.5-3.2-3.2-10.5,10.7,7.2,7a25.21,25.21,0,0,0-2.1,5.4l-10,.1.2,15,6.3-.1Z" transform="translate(49.8 -239.2)"/><path id="_Path_83" data-name="&lt;Path&gt;" class="cls-2" d="M200.7,341.1a23.46,23.46,0,0,1-4.3,1.9l5.2,5.1,3.1-3.2Z" transform="translate(49.8 -239.2)"/><path id="_Path_84" data-name="&lt;Path&gt;" class="cls-2" d="M157.4,338l7-7.2a31.42,31.42,0,0,1-2.3-5.3l-6.3.1a30.06,30.06,0,0,0,2.2,5.2l-7,7.2,10.7,10.5,3.1-3.2Z" transform="translate(49.8 -239.2)"/></g><path id="_Compound_Path_7" data-name="&lt;Compound Path&gt;" class="cls-4" d="M217,324.9l-.2-15-10,.1a25,25,0,0,0-2.3-5.3l7-7.2L200.8,287l-7,7.2a25.21,25.21,0,0,0-5.4-2.1l-.1-10-15,.2.1,10a25,25,0,0,0-5.3,2.3l-7.2-7-10.5,10.7,7.2,7a25.21,25.21,0,0,0-2.1,5.4l-10,.1.2,15,10-.1A25,25,0,0,0,158,331l-7,7.2,10.7,10.5,7-7.2a25.21,25.21,0,0,0,5.4,2.1l.1,10,15-.2-.1-10a25,25,0,0,0,5.3-2.3l7.2,7,10.5-10.7-7.2-7A25.21,25.21,0,0,0,207,325Zm-35.5,4.6a11.7,11.7,0,1,1,11.6-11.8A11.78,11.78,0,0,1,181.5,329.5Z" transform="translate(49.8 -239.2)"/></g><g id="_Group_52" data-name="&lt;Group&gt;"><path id="_Path_85" data-name="&lt;Path&gt;" class="cls-11" d="M154.5,541.2H30.8a7.38,7.38,0,0,1-7.4-7.4V449.2a7.38,7.38,0,0,1,7.4-7.4H154.6a7.38,7.38,0,0,1,7.4,7.4v84.6A7.53,7.53,0,0,1,154.5,541.2Z" transform="translate(49.8 -239.2)"/><path id="_Path_86" data-name="&lt;Path&gt;" class="cls-27" d="M161.9,457.9H23.4v-8.7a7.38,7.38,0,0,1,7.4-7.4H154.6a7.38,7.38,0,0,1,7.4,7.4v8.7Z" transform="translate(49.8 -239.2)"/><path id="_Path_87" data-name="&lt;Path&gt;" class="cls-4" d="M154.5,541.2H30.8a7.38,7.38,0,0,1-7.4-7.4V449.2a7.38,7.38,0,0,1,7.4-7.4H154.6a7.38,7.38,0,0,1,7.4,7.4v84.6A7.53,7.53,0,0,1,154.5,541.2Z" transform="translate(49.8 -239.2)"/><path id="_Path_88" data-name="&lt;Path&gt;" class="cls-4" d="M154.5,541.2H30.8a7.38,7.38,0,0,1-7.4-7.4V449.2a7.38,7.38,0,0,1,7.4-7.4H154.6a7.38,7.38,0,0,1,7.4,7.4v84.6A7.53,7.53,0,0,1,154.5,541.2Z" transform="translate(49.8 -239.2)"/><path id="_Path_89" data-name="&lt;Path&gt;" class="cls-4" d="M161.9,457.9H23.4v-8.7a7.38,7.38,0,0,1,7.4-7.4H154.6a7.38,7.38,0,0,1,7.4,7.4v8.7Z" transform="translate(49.8 -239.2)"/><g id="_Group_53" data-name="&lt;Group&gt;"><g id="_Group_54" data-name="&lt;Group&gt;"><line id="_Path_90" data-name="&lt;Path&gt;" class="cls-25" x1="92.3" y1="289.3" x2="107.9" y2="289.3"/><line id="_Path_91" data-name="&lt;Path&gt;" class="cls-25" x1="81.3" y1="289.3" x2="82.4" y2="289.3"/></g><g id="_Group_55" data-name="&lt;Group&gt;"><line id="_Path_92" data-name="&lt;Path&gt;" class="cls-25" x1="92.3" y1="280.7" x2="131.8" y2="280.7"/><line id="_Path_93" data-name="&lt;Path&gt;" class="cls-25" x1="81.3" y1="280.7" x2="82.4" y2="280.7"/></g><g id="_Group_56" data-name="&lt;Group&gt;"><line id="_Path_94" data-name="&lt;Path&gt;" class="cls-28" x1="150.6" y1="272" x2="161.4" y2="272"/><line id="_Path_95" data-name="&lt;Path&gt;" class="cls-25" x1="121.2" y1="272" x2="141.2" y2="272"/><line id="_Path_96" data-name="&lt;Path&gt;" class="cls-29" x1="92.3" y1="272" x2="112.1" y2="272"/><line id="_Path_97" data-name="&lt;Path&gt;" class="cls-25" x1="81.3" y1="272" x2="82.4" y2="272"/></g><g id="_Group_57" data-name="&lt;Group&gt;"><line id="_Path_98" data-name="&lt;Path&gt;" class="cls-25" x1="125.6" y1="263.4" x2="173.8" y2="263.4"/><line id="_Path_99" data-name="&lt;Path&gt;" class="cls-28" x1="92.3" y1="263.4" x2="117.5" y2="263.4"/><line id="_Path_100" data-name="&lt;Path&gt;" class="cls-25" x1="81.3" y1="263.4" x2="82.4" y2="263.4"/></g><g id="_Group_58" data-name="&lt;Group&gt;"><line id="_Path_101" data-name="&lt;Path&gt;" class="cls-29" x1="125.6" y1="254.8" x2="143.6" y2="254.8"/><line id="_Path_102" data-name="&lt;Path&gt;" class="cls-30" x1="92.3" y1="254.8" x2="117.5" y2="254.8"/><line id="_Path_103" data-name="&lt;Path&gt;" class="cls-25" x1="81.3" y1="254.8" x2="82.4" y2="254.8"/></g><g id="_Group_59" data-name="&lt;Group&gt;"><line id="_Path_104" data-name="&lt;Path&gt;" class="cls-28" x1="129.1" y1="246.2" x2="134" y2="246.2"/><line id="_Path_105" data-name="&lt;Path&gt;" class="cls-29" x1="110.1" y1="246.2" x2="121.2" y2="246.2"/><line id="_Path_106" data-name="&lt;Path&gt;" class="cls-31" x1="92.3" y1="246.2" x2="101.5" y2="246.2"/><line id="_Path_107" data-name="&lt;Path&gt;" class="cls-25" x1="81.3" y1="246.2" x2="82.4" y2="246.2"/></g><g id="_Group_60" data-name="&lt;Group&gt;"><line id="_Path_108" data-name="&lt;Path&gt;" class="cls-28" x1="165.1" y1="237.5" x2="173.8" y2="237.5"/><line id="_Path_109" data-name="&lt;Path&gt;" class="cls-29" x1="120" y1="237.5" x2="154.1" y2="237.5"/><line id="_Path_110" data-name="&lt;Path&gt;" class="cls-30" x1="92.3" y1="237.5" x2="112.6" y2="237.5"/><line id="_Path_111" data-name="&lt;Path&gt;" class="cls-25" x1="81.3" y1="237.5" x2="82.4" y2="237.5"/></g><g id="_Group_61" data-name="&lt;Group&gt;"><line id="_Path_112" data-name="&lt;Path&gt;" class="cls-30" x1="143.6" y1="228.9" x2="161.4" y2="228.9"/><line id="_Path_113" data-name="&lt;Path&gt;" class="cls-32" x1="121.2" y1="228.9" x2="135" y2="228.9"/><line id="_Path_114" data-name="&lt;Path&gt;" class="cls-30" x1="106.2" y1="228.9" x2="114" y2="228.9"/><line id="_Path_115" data-name="&lt;Path&gt;" class="cls-32" x1="92.3" y1="228.9" x2="98.7" y2="228.9"/><line id="_Path_116" data-name="&lt;Path&gt;" class="cls-25" x1="81.3" y1="228.9" x2="82.4" y2="228.9"/></g></g><g id="_Group_62" data-name="&lt;Group&gt;"><circle id="_Path_117" data-name="&lt;Path&gt;" class="cls-23" cx="86.9" cy="210.7" r="2.5"/><circle id="_Path_118" data-name="&lt;Path&gt;" class="cls-11" cx="95.9" cy="210.7" r="2.5"/><circle id="_Path_119" data-name="&lt;Path&gt;" class="cls-11" cx="105" cy="210.7" r="2.5"/></g></g><path id="_Path_120" data-name="&lt;Path&gt;" class="cls-8" d="M203.8,466.7H114.2a8,8,0,0,1-8-8V377.8a8,8,0,0,1,8-8h89.6a8,8,0,0,1,8,8v80.9A8,8,0,0,1,203.8,466.7Z" transform="translate(49.8 -239.2)"/><path id="_Path_121" data-name="&lt;Path&gt;" class="cls-8" d="M203.8,466.7H114.2a8,8,0,0,1-8-8V377.8a8,8,0,0,1,8-8h89.6a8,8,0,0,1,8,8v80.9A8,8,0,0,1,203.8,466.7Z" transform="translate(49.8 -239.2)"/><path id="_Path_122" data-name="&lt;Path&gt;" class="cls-4" d="M203.8,466.7H114.2a8,8,0,0,1-8-8V377.8a8,8,0,0,1,8-8h89.6a8,8,0,0,1,8,8v80.9A8,8,0,0,1,203.8,466.7Z" transform="translate(49.8 -239.2)"/><rect id="_Path_123" data-name="&lt;Path&gt;" class="cls-33" x="165.1" y="138.8" width="86.8" height="57.7"/><rect id="_Path_124" data-name="&lt;Path&gt;" class="cls-4" x="165.1" y="138.8" width="86.8" height="57.7"/><line id="_Path_125" data-name="&lt;Path&gt;" class="cls-4" x1="165.1" y1="205.7" x2="219.9" y2="205.7"/><line id="_Path_126" data-name="&lt;Path&gt;" class="cls-4" x1="165.1" y1="214.9" x2="197.5" y2="214.9"/><polyline id="_Path_127" data-name="&lt;Path&gt;" class="cls-4" points="173.8 186.2 192.5 167.7 209.9 185.1"/><polyline id="_Path_128" data-name="&lt;Path&gt;" class="cls-4" points="242.5 186.2 219.9 156.7 201.8 176.9"/><circle id="_Path_129" data-name="&lt;Path&gt;" class="cls-4" cx="242.3" cy="209.9" r="4.9"/><circle id="_Path_130" data-name="&lt;Path&gt;" class="cls-2" cx="198" cy="156.7" r="6.2"/><circle id="_Path_131" data-name="&lt;Path&gt;" class="cls-4" cx="198" cy="156.7" r="6.2"/><g id="_Group_63" data-name="&lt;Group&gt;"><line id="_Path_132" data-name="&lt;Path&gt;" class="cls-4" x1="154.3" y1="102.1" x2="181.1" y2="102.1"/><line id="_Path_133" data-name="&lt;Path&gt;" class="cls-4" x1="140" y1="102.1" x2="147.1" y2="102.1"/><line id="_Path_134" data-name="&lt;Path&gt;" class="cls-4" x1="167.7" y1="89.7" x2="181.1" y2="89.7"/><line id="_Path_135" data-name="&lt;Path&gt;" class="cls-4" x1="156.9" y1="89.7" x2="160.9" y2="89.7"/></g><g id="_Group_64" data-name="&lt;Group&gt;"><line id="_Path_136" data-name="&lt;Path&gt;" class="cls-4" x1="125.3" y1="180.5" x2="146.2" y2="180.5"/><line id="_Path_137" data-name="&lt;Path&gt;" class="cls-4" x1="114.2" y1="180.5" x2="119.7" y2="180.5"/><line id="_Path_138" data-name="&lt;Path&gt;" class="cls-4" x1="137.7" y1="168.1" x2="146.2" y2="168.1"/><line id="_Path_139" data-name="&lt;Path&gt;" class="cls-4" x1="127.3" y1="168.1" x2="130.5" y2="168.1"/></g><g id="_Group_65" data-name="&lt;Group&gt;"><line id="_Path_140" data-name="&lt;Path&gt;" class="cls-4" x1="458.6" y1="35.4" x2="478.4" y2="35.4"/><line id="_Path_141" data-name="&lt;Path&gt;" class="cls-4" x1="446.4" y1="35.4" x2="452" y2="35.4"/><line id="_Path_142" data-name="&lt;Path&gt;" class="cls-4" x1="469.9" y1="23" x2="478.4" y2="23"/><line id="_Path_143" data-name="&lt;Path&gt;" class="cls-4" x1="459.6" y1="23" x2="462.7" y2="23"/></g><path id="_Path_144" data-name="&lt;Path&gt;" class="cls-21" d="M424.2,344.5H346a8.6,8.6,0,0,1-8.6-8.6V298a8.6,8.6,0,0,1,8.6-8.6h78.2a8.6,8.6,0,0,1,8.6,8.6v37.8A8.62,8.62,0,0,1,424.2,344.5Z" transform="translate(49.8 -239.2)"/><path id="_Path_145" data-name="&lt;Path&gt;" class="cls-5" d="M424.2,344.5H346a8.6,8.6,0,0,1-8.6-8.6V298a8.6,8.6,0,0,1,8.6-8.6h78.2a8.6,8.6,0,0,1,8.6,8.6v37.8A8.62,8.62,0,0,1,424.2,344.5Z" transform="translate(49.8 -239.2)"/><line id="_Path_146" data-name="&lt;Path&gt;" class="cls-34" x1="434.9" y1="65" x2="468.7" y2="65"/><line id="_Path_147" data-name="&lt;Path&gt;" class="cls-34" x1="434.9" y1="75.9" x2="457.3" y2="75.9"/><g id="_Group_66" data-name="&lt;Group&gt;" class="cls-35"><path id="_Path_148" data-name="&lt;Path&gt;" class="cls-8" d="M402.1,331.4H388.5a3.33,3.33,0,0,1-3.3-3.3h0a3.33,3.33,0,0,1,3.3-3.3h13.6a3.33,3.33,0,0,1,3.3,3.3h0A3.27,3.27,0,0,1,402.1,331.4Z" transform="translate(49.8 -239.2)"/><path id="_Path_149" data-name="&lt;Path&gt;" class="cls-36" d="M402.1,331.4H388.5a3.33,3.33,0,0,1-3.3-3.3h0a3.33,3.33,0,0,1,3.3-3.3h13.6a3.33,3.33,0,0,1,3.3,3.3h0A3.27,3.27,0,0,1,402.1,331.4Z" transform="translate(49.8 -239.2)"/></g><g id="_Group_67" data-name="&lt;Group&gt;"><path id="_Path_150" data-name="&lt;Path&gt;" class="cls-36" d="M371,331.9H353.1a4.59,4.59,0,0,1-4.6-4.6V306.4a4.59,4.59,0,0,1,4.6-4.6H371a4.59,4.59,0,0,1,4.6,4.6v20.9A4.59,4.59,0,0,1,371,331.9Z" transform="translate(49.8 -239.2)"/><circle id="_Path_151" data-name="&lt;Path&gt;" class="cls-36" cx="411.9" cy="74.2" r="4.8"/><path id="_Path_152" data-name="&lt;Path&gt;" class="cls-36" d="M353,331.4a9.1,9.1,0,1,1,18.2,0" transform="translate(49.8 -239.2)"/></g></g></svg>