<svg id="Layer_1" data-name="Layer 1" xmlns="http://www.w3.org/2000/svg" viewBox="0 0 826.2 519.7"><defs><style>.cls-1{opacity:0.2;}.cls-2,.cls-3,.cls-6,.cls-9{fill:none;stroke-linecap:round;stroke-linejoin:round;}.cls-2,.cls-3,.cls-6{stroke:#153144;}.cls-2,.cls-3{stroke-width:6px;}.cls-3{opacity:0.36;}.cls-14,.cls-3,.cls-8{isolation:isolate;}.cls-4{fill:#153144;}.cls-5{fill:#fff;}.cls-6{stroke-width:8px;}.cls-7{fill:#ee3155;}.cls-8{fill:#7eb25a;opacity:0.3;}.cls-9{stroke:#ee3155;stroke-width:5px;}.cls-10{fill:#95c8ec;}.cls-11{fill:#ce2951;}.cls-12,.cls-14{fill:#ae264d;}.cls-13{fill:#75bae7;}.cls-14{opacity:0.63;}</style></defs><title>easy</title><g id="_Group_" data-name="&lt;Group&gt;" class="cls-1"><rect id="_Path_" data-name="&lt;Path&gt;" class="cls-2" x="553.05" y="228.35" height="288"/><rect id="_Path_2" data-name="&lt;Path&gt;" class="cls-2" x="295.3" y="135.4" width="112" height="380.9"/><g id="_Group_2" data-name="&lt;Group&gt;"><line id="_Path_3" data-name="&lt;Path&gt;" class="cls-2" x1="314.7" y1="433.3" x2="387.7" y2="433.3"/><line id="_Path_4" data-name="&lt;Path&gt;" class="cls-2" x1="314.7" y1="445.3" x2="387.7" y2="445.3"/><line id="_Path_5" data-name="&lt;Path&gt;" class="cls-2" x1="314.7" y1="399.3" x2="387.7" y2="399.3"/><line id="_Path_6" data-name="&lt;Path&gt;" class="cls-2" x1="314.7" y1="411.3" x2="387.7" y2="411.3"/><line id="_Path_7" data-name="&lt;Path&gt;" class="cls-2" x1="314.7" y1="365.3" x2="387.7" y2="365.3"/><line id="_Path_8" data-name="&lt;Path&gt;" class="cls-2" x1="314.7" y1="377.3" x2="387.7" y2="377.3"/><line id="_Path_9" data-name="&lt;Path&gt;" class="cls-2" x1="314.7" y1="331.3" x2="387.7" y2="331.3"/><line id="_Path_10" data-name="&lt;Path&gt;" class="cls-2" x1="314.7" y1="343.3" x2="387.7" y2="343.3"/><line id="_Path_11" data-name="&lt;Path&gt;" class="cls-2" x1="314.7" y1="297.3" x2="387.7" y2="297.3"/><line id="_Path_12" data-name="&lt;Path&gt;" class="cls-2" x1="314.7" y1="309.3" x2="387.7" y2="309.3"/><line id="_Path_13" data-name="&lt;Path&gt;" class="cls-2" x1="314.7" y1="263.3" x2="387.7" y2="263.3"/><line id="_Path_14" data-name="&lt;Path&gt;" class="cls-2" x1="314.7" y1="275.3" x2="387.7" y2="275.3"/><line id="_Path_15" data-name="&lt;Path&gt;" class="cls-2" x1="314.7" y1="229.3" x2="387.7" y2="229.3"/><line id="_Path_16" data-name="&lt;Path&gt;" class="cls-2" x1="314.7" y1="241.3" x2="387.7" y2="241.3"/><line id="_Path_17" data-name="&lt;Path&gt;" class="cls-2" x1="314.7" y1="195.3" x2="387.7" y2="195.3"/><line id="_Path_18" data-name="&lt;Path&gt;" class="cls-2" x1="314.7" y1="207.3" x2="387.7" y2="207.3"/><line id="_Path_19" data-name="&lt;Path&gt;" class="cls-2" x1="314.7" y1="161.3" x2="387.7" y2="161.3"/><line id="_Path_20" data-name="&lt;Path&gt;" class="cls-2" x1="314.7" y1="173.3" x2="387.7" y2="173.3"/></g><path id="_Path_21" data-name="&lt;Path&gt;" class="cls-2" d="M294.7,215.4h-74v-43a37,37,0,0,1,37-37h0a37,37,0,0,1,37,37Z" transform="translate(93.6 -80)"/><rect id="_Path_22" data-name="&lt;Path&gt;" class="cls-2" x="407.3" y="208.3" width="145.8" height="20"/><g id="_Group_3" data-name="&lt;Group&gt;"><g id="_Group_4" data-name="&lt;Group&gt;"><line id="_Path_23" data-name="&lt;Path&gt;" class="cls-2" x1="530.7" y1="460.3" x2="530.7" y2="475.3"/></g><g id="_Group_5" data-name="&lt;Group&gt;"><line id="_Path_24" data-name="&lt;Path&gt;" class="cls-2" x1="510.7" y1="460.3" x2="510.7" y2="475.3"/></g><g id="_Group_6" data-name="&lt;Group&gt;"><line id="_Path_25" data-name="&lt;Path&gt;" class="cls-2" x1="490.7" y1="460.3" x2="490.7" y2="475.3"/></g><g id="_Group_7" data-name="&lt;Group&gt;"><line id="_Path_26" data-name="&lt;Path&gt;" class="cls-2" x1="470.7" y1="460.3" x2="470.7" y2="475.3"/></g><g id="_Group_8" data-name="&lt;Group&gt;"><line id="_Path_27" data-name="&lt;Path&gt;" class="cls-2" x1="450.7" y1="460.3" x2="450.7" y2="475.3"/></g><g id="_Group_9" data-name="&lt;Group&gt;"><line id="_Path_28" data-name="&lt;Path&gt;" class="cls-2" x1="430.7" y1="460.3" x2="430.7" y2="475.3"/></g><g id="_Group_10" data-name="&lt;Group&gt;"><line id="_Path_29" data-name="&lt;Path&gt;" class="cls-2" x1="530.7" y1="420.3" x2="530.7" y2="435.3"/></g><g id="_Group_11" data-name="&lt;Group&gt;"><line id="_Path_30" data-name="&lt;Path&gt;" class="cls-2" x1="510.7" y1="420.3" x2="510.7" y2="435.3"/></g><g id="_Group_12" data-name="&lt;Group&gt;"><line id="_Path_31" data-name="&lt;Path&gt;" class="cls-2" x1="490.7" y1="420.3" x2="490.7" y2="435.3"/></g><g id="_Group_13" data-name="&lt;Group&gt;"><line id="_Path_32" data-name="&lt;Path&gt;" class="cls-2" x1="470.7" y1="420.3" x2="470.7" y2="435.3"/></g><g id="_Group_14" data-name="&lt;Group&gt;"><line id="_Path_33" data-name="&lt;Path&gt;" class="cls-2" x1="450.7" y1="420.3" x2="450.7" y2="435.3"/></g><g id="_Group_15" data-name="&lt;Group&gt;"><line id="_Path_34" data-name="&lt;Path&gt;" class="cls-2" x1="430.7" y1="420.3" x2="430.7" y2="435.3"/></g><g id="_Group_16" data-name="&lt;Group&gt;"><line id="_Path_35" data-name="&lt;Path&gt;" class="cls-2" x1="530.7" y1="380.3" x2="530.7" y2="395.3"/></g><g id="_Group_17" data-name="&lt;Group&gt;"><line id="_Path_36" data-name="&lt;Path&gt;" class="cls-2" x1="510.7" y1="380.3" x2="510.7" y2="395.3"/></g><g id="_Group_18" data-name="&lt;Group&gt;"><line id="_Path_37" data-name="&lt;Path&gt;" class="cls-2" x1="490.7" y1="380.3" x2="490.7" y2="395.3"/></g><g id="_Group_19" data-name="&lt;Group&gt;"><line id="_Path_38" data-name="&lt;Path&gt;" class="cls-2" x1="470.7" y1="380.3" x2="470.7" y2="395.3"/></g><g id="_Group_20" data-name="&lt;Group&gt;"><line id="_Path_39" data-name="&lt;Path&gt;" class="cls-2" x1="450.7" y1="380.3" x2="450.7" y2="395.3"/></g><g id="_Group_21" data-name="&lt;Group&gt;"><line id="_Path_40" data-name="&lt;Path&gt;" class="cls-2" x1="430.7" y1="380.3" x2="430.7" y2="395.3"/></g><g id="_Group_22" data-name="&lt;Group&gt;"><line id="_Path_41" data-name="&lt;Path&gt;" class="cls-2" x1="530.7" y1="340.3" x2="530.7" y2="355.3"/></g><g id="_Group_23" data-name="&lt;Group&gt;"><line id="_Path_42" data-name="&lt;Path&gt;" class="cls-2" x1="510.7" y1="340.3" x2="510.7" y2="355.3"/></g><g id="_Group_24" data-name="&lt;Group&gt;"><line id="_Path_43" data-name="&lt;Path&gt;" class="cls-2" x1="490.7" y1="340.3" x2="490.7" y2="355.3"/></g><g id="_Group_25" data-name="&lt;Group&gt;"><line id="_Path_44" data-name="&lt;Path&gt;" class="cls-2" x1="470.7" y1="340.3" x2="470.7" y2="355.3"/></g><g id="_Group_26" data-name="&lt;Group&gt;"><line id="_Path_45" data-name="&lt;Path&gt;" class="cls-2" x1="450.7" y1="340.3" x2="450.7" y2="355.3"/></g><g id="_Group_27" data-name="&lt;Group&gt;"><line id="_Path_46" data-name="&lt;Path&gt;" class="cls-2" x1="430.7" y1="340.3" x2="430.7" y2="355.3"/></g><g id="_Group_28" data-name="&lt;Group&gt;"><line id="_Path_47" data-name="&lt;Path&gt;" class="cls-2" x1="530.7" y1="300.3" x2="530.7" y2="315.3"/></g><g id="_Group_29" data-name="&lt;Group&gt;"><line id="_Path_48" data-name="&lt;Path&gt;" class="cls-2" x1="510.7" y1="300.3" x2="510.7" y2="315.3"/></g><g id="_Group_30" data-name="&lt;Group&gt;"><line id="_Path_49" data-name="&lt;Path&gt;" class="cls-2" x1="490.7" y1="300.3" x2="490.7" y2="315.3"/></g><g id="_Group_31" data-name="&lt;Group&gt;"><line id="_Path_50" data-name="&lt;Path&gt;" class="cls-2" x1="470.7" y1="300.3" x2="470.7" y2="315.3"/></g><g id="_Group_32" data-name="&lt;Group&gt;"><line id="_Path_51" data-name="&lt;Path&gt;" class="cls-2" x1="450.7" y1="300.3" x2="450.7" y2="315.3"/></g><g id="_Group_33" data-name="&lt;Group&gt;"><line id="_Path_52" data-name="&lt;Path&gt;" class="cls-2" x1="430.7" y1="300.3" x2="430.7" y2="315.3"/></g><g id="_Group_34" data-name="&lt;Group&gt;"><line id="_Path_53" data-name="&lt;Path&gt;" class="cls-2" x1="530.7" y1="260.3" x2="530.7" y2="275.3"/></g><g id="_Group_35" data-name="&lt;Group&gt;"><line id="_Path_54" data-name="&lt;Path&gt;" class="cls-2" x1="510.7" y1="260.3" x2="510.7" y2="275.3"/></g><g id="_Group_36" data-name="&lt;Group&gt;"><line id="_Path_55" data-name="&lt;Path&gt;" class="cls-2" x1="490.7" y1="260.3" x2="490.7" y2="275.3"/></g><g id="_Group_37" data-name="&lt;Group&gt;"><line id="_Path_56" data-name="&lt;Path&gt;" class="cls-2" x1="470.7" y1="260.3" x2="470.7" y2="275.3"/></g><g id="_Group_38" data-name="&lt;Group&gt;"><line id="_Path_57" data-name="&lt;Path&gt;" class="cls-2" x1="450.7" y1="260.3" x2="450.7" y2="275.3"/></g><g id="_Group_39" data-name="&lt;Group&gt;"><line id="_Path_58" data-name="&lt;Path&gt;" class="cls-2" x1="430.7" y1="260.3" x2="430.7" y2="275.3"/></g></g><rect id="_Path_59" data-name="&lt;Path&gt;" class="cls-2" x="233.6" y="228.3" width="60.6" height="288"/><g id="_Group_40" data-name="&lt;Group&gt;"><g id="_Group_41" data-name="&lt;Group&gt;"><line id="_Path_60" data-name="&lt;Path&gt;" class="cls-2" x1="250.7" y1="420.3" x2="250.7" y2="435.3"/><line id="_Path_61" data-name="&lt;Path&gt;" class="cls-3" x1="250.7" y1="440.3" x2="250.7" y2="446.3"/></g><g id="_Group_42" data-name="&lt;Group&gt;"><line id="_Path_62" data-name="&lt;Path&gt;" class="cls-2" x1="263.7" y1="420.3" x2="263.7" y2="435.3"/><line id="_Path_63" data-name="&lt;Path&gt;" class="cls-3" x1="263.7" y1="440.3" x2="263.7" y2="446.3"/></g><g id="_Group_43" data-name="&lt;Group&gt;"><line id="_Path_64" data-name="&lt;Path&gt;" class="cls-2" x1="276.7" y1="420.3" x2="276.7" y2="435.3"/><line id="_Path_65" data-name="&lt;Path&gt;" class="cls-3" x1="276.7" y1="440.3" x2="276.7" y2="446.3"/></g><g id="_Group_44" data-name="&lt;Group&gt;"><line id="_Path_66" data-name="&lt;Path&gt;" class="cls-2" x1="250.7" y1="376.3" x2="250.7" y2="391.3"/><line id="_Path_67" data-name="&lt;Path&gt;" class="cls-3" x1="250.7" y1="396.3" x2="250.7" y2="402.3"/></g><g id="_Group_45" data-name="&lt;Group&gt;"><line id="_Path_68" data-name="&lt;Path&gt;" class="cls-2" x1="263.7" y1="376.3" x2="263.7" y2="391.3"/><line id="_Path_69" data-name="&lt;Path&gt;" class="cls-3" x1="263.7" y1="396.3" x2="263.7" y2="402.3"/></g><g id="_Group_46" data-name="&lt;Group&gt;"><line id="_Path_70" data-name="&lt;Path&gt;" class="cls-2" x1="276.7" y1="376.3" x2="276.7" y2="391.3"/><line id="_Path_71" data-name="&lt;Path&gt;" class="cls-3" x1="276.7" y1="396.3" x2="276.7" y2="402.3"/></g><g id="_Group_47" data-name="&lt;Group&gt;"><line id="_Path_72" data-name="&lt;Path&gt;" class="cls-2" x1="250.7" y1="332.3" x2="250.7" y2="347.3"/><line id="_Path_73" data-name="&lt;Path&gt;" class="cls-3" x1="250.7" y1="352.3" x2="250.7" y2="358.3"/></g><g id="_Group_48" data-name="&lt;Group&gt;"><line id="_Path_74" data-name="&lt;Path&gt;" class="cls-2" x1="263.7" y1="332.3" x2="263.7" y2="347.3"/><line id="_Path_75" data-name="&lt;Path&gt;" class="cls-3" x1="263.7" y1="352.3" x2="263.7" y2="358.3"/></g><g id="_Group_49" data-name="&lt;Group&gt;"><line id="_Path_76" data-name="&lt;Path&gt;" class="cls-2" x1="276.7" y1="332.3" x2="276.7" y2="347.3"/><line id="_Path_77" data-name="&lt;Path&gt;" class="cls-3" x1="276.7" y1="352.3" x2="276.7" y2="358.3"/></g><g id="_Group_50" data-name="&lt;Group&gt;"><line id="_Path_78" data-name="&lt;Path&gt;" class="cls-2" x1="250.7" y1="288.3" x2="250.7" y2="303.3"/><line id="_Path_79" data-name="&lt;Path&gt;" class="cls-3" x1="250.7" y1="308.3" x2="250.7" y2="314.3"/></g><g id="_Group_51" data-name="&lt;Group&gt;"><line id="_Path_80" data-name="&lt;Path&gt;" class="cls-2" x1="263.7" y1="288.3" x2="263.7" y2="303.3"/><line id="_Path_81" data-name="&lt;Path&gt;" class="cls-3" x1="263.7" y1="308.3" x2="263.7" y2="314.3"/></g><g id="_Group_52" data-name="&lt;Group&gt;"><line id="_Path_82" data-name="&lt;Path&gt;" class="cls-2" x1="276.7" y1="288.3" x2="276.7" y2="303.3"/><line id="_Path_83" data-name="&lt;Path&gt;" class="cls-3" x1="276.7" y1="308.3" x2="276.7" y2="314.3"/></g><g id="_Group_53" data-name="&lt;Group&gt;"><line id="_Path_84" data-name="&lt;Path&gt;" class="cls-2" x1="250.7" y1="244.3" x2="250.7" y2="259.3"/><line id="_Path_85" data-name="&lt;Path&gt;" class="cls-3" x1="250.7" y1="264.3" x2="250.7" y2="270.3"/></g><g id="_Group_54" data-name="&lt;Group&gt;"><line id="_Path_86" data-name="&lt;Path&gt;" class="cls-2" x1="263.7" y1="244.3" x2="263.7" y2="259.3"/><line id="_Path_87" data-name="&lt;Path&gt;" class="cls-3" x1="263.7" y1="264.3" x2="263.7" y2="270.3"/></g><g id="_Group_55" data-name="&lt;Group&gt;"><line id="_Path_88" data-name="&lt;Path&gt;" class="cls-2" x1="276.7" y1="244.3" x2="276.7" y2="259.3"/><line id="_Path_89" data-name="&lt;Path&gt;" class="cls-3" x1="276.7" y1="264.3" x2="276.7" y2="270.3"/></g></g><ellipse id="_Path_90" data-name="&lt;Path&gt;" class="cls-2" cx="613.4" cy="375.2" rx="41" ry="56.9"/><line id="_Path_91" data-name="&lt;Path&gt;" class="cls-2" x1="615" y1="408.6" x2="626.7" y2="396.8"/><line id="_Path_92" data-name="&lt;Path&gt;" class="cls-2" x1="613.4" y1="390.7" x2="600.9" y2="379"/><line id="_Path_93" data-name="&lt;Path&gt;" class="cls-2" x1="615" y1="362.2" x2="615" y2="483.4"/><line id="_Path_94" data-name="&lt;Path&gt;" class="cls-2" x1="351.2" y1="3" x2="351.2" y2="55.4"/></g><ellipse id="_Path_95" data-name="&lt;Path&gt;" class="cls-4" cx="52.1" cy="389.7" rx="19" ry="11.2"/><polygon id="_Path_96" data-name="&lt;Path&gt;" class="cls-5" points="286.7 249 130.2 249 130.2 214.1 85.4 223.1 130.2 181.4 130.2 102.4 286.7 102.4 286.7 249"/><path id="_Path_97" data-name="&lt;Path&gt;" class="cls-5" d="M177.9,329H46.8a15.19,15.19,0,0,1-15.2-15.2V294.1l-44.9,9,44.9-41.7V197.6a15.19,15.19,0,0,1,15.2-15.2H177.9a15.19,15.19,0,0,1,15.2,15.2V313.8A15.19,15.19,0,0,1,177.9,329Z" transform="translate(93.6 -80)"/><path id="_Path_98" data-name="&lt;Path&gt;" class="cls-6" d="M177.9,329H46.8a15.19,15.19,0,0,1-15.2-15.2V294.1l-44.9,9,44.9-41.7V197.6a15.19,15.19,0,0,1,15.2-15.2H177.9a15.19,15.19,0,0,1,15.2,15.2V313.8A15.19,15.19,0,0,1,177.9,329Z" transform="translate(93.6 -80)"/><path id="_Path_99" data-name="&lt;Path&gt;" class="cls-7" d="M628,595.7c-4.1-46-38.4-82-80.1-82s-76.1,36-80.1,82Z" transform="translate(93.6 -80)"/><path id="_Path_100" data-name="&lt;Path&gt;" class="cls-8" d="M572,545a57.23,57.23,0,0,0-8.4-29.6,74,74,0,0,0-15.7-1.7c-41.7,0-76.1,36-80.1,82h74.8C560.3,584.4,572,565.9,572,545Z" transform="translate(93.6 -80)"/><path id="_Path_101" data-name="&lt;Path&gt;" class="cls-7" d="M670.5,595.7c-2.2-24.4-20.4-43.5-42.5-43.5s-40.3,19.1-42.5,43.5Z" transform="translate(93.6 -80)"/><path id="_Path_102" data-name="&lt;Path&gt;" class="cls-8" d="M640.8,568.8a29.6,29.6,0,0,0-4.5-15.7,38.37,38.37,0,0,0-8.3-.9c-22.1,0-40.3,19.1-42.5,43.5h39.7C634.6,589.7,640.8,579.9,640.8,568.8Z" transform="translate(93.6 -80)"/><line id="_Path_103" data-name="&lt;Path&gt;" class="cls-6" x1="645.3" y1="464.1" x2="645.3" y2="515.7"/><line id="_Path_104" data-name="&lt;Path&gt;" class="cls-6" x1="618.3" y1="472.2" x2="645.3" y2="488.9"/><line id="_Path_105" data-name="&lt;Path&gt;" class="cls-6" x1="645.8" y1="507.3" x2="667" y2="489.9"/><ellipse id="_Path_106" data-name="&lt;Path&gt;" class="cls-7" cx="687.3" cy="235.7" rx="75" ry="107"/><path id="_Path_107" data-name="&lt;Path&gt;" class="cls-8" d="M518.7,315.7c0,23,5.1,44.3,13.8,61.8a50.47,50.47,0,0,0,25,6.8c37.7,0,68.3-43.6,68.3-97.5,0-31.8-10.7-60-27.2-77.8a40.15,40.15,0,0,0-4.9-.2C552.3,208.7,518.7,256.6,518.7,315.7Z" transform="translate(93.6 -80)"/><path id="_Path_108" data-name="&lt;Path&gt;" class="cls-6" d="M677.3,595.7H44a15.83,15.83,0,0,1-15.8-15.8h0A15.83,15.83,0,0,1,44,564.1H64.2a12.72,12.72,0,0,0,12.7-12.7h0a12.72,12.72,0,0,0-12.7-12.7H-8a13.44,13.44,0,0,1-13.5-13.5h0A13.44,13.44,0,0,1-8,511.7H7.2A19.67,19.67,0,0,0,26.9,492h0A19.67,19.67,0,0,0,7.2,472.3H-41.5" transform="translate(93.6 -80)"/><line id="_Path_109" data-name="&lt;Path&gt;" class="cls-6" x1="822.2" y1="515.7" x2="792.9" y2="515.7"/><path id="_Path_110" data-name="&lt;Path&gt;" class="cls-7" d="M-77.1,331.5h0a48.15,48.15,0,0,1,71.1,0h0a48.3,48.3,0,0,1,7.6,53.7l-43.1,87.1-43.1-87.1A48.1,48.1,0,0,1-77.1,331.5Z" transform="translate(93.6 -80)"/><path id="_Path_111" data-name="&lt;Path&gt;" class="cls-7" d="M-77.1,350.3h0a48.15,48.15,0,0,1,71.1,0h0a48.44,48.44,0,0,1,11.6,23A48,48,0,0,0-6,331.4h0a48.15,48.15,0,0,0-71.1,0h0a48,48,0,0,0-11.6,41.9A48.89,48.89,0,0,1-77.1,350.3Z" transform="translate(93.6 -80)"/><path id="_Path_112" data-name="&lt;Path&gt;" class="cls-6" d="M-77.1,331.5h0a48.15,48.15,0,0,1,71.1,0h0a48.3,48.3,0,0,1,7.6,53.7l-43.1,87.1-43.1-87.1A48.1,48.1,0,0,1-77.1,331.5Z" transform="translate(93.6 -80)"/><circle id="_Path_113" data-name="&lt;Path&gt;" class="cls-5" cx="52.1" cy="283.7" r="23.3"/><circle id="_Path_114" data-name="&lt;Path&gt;" class="cls-6" cx="52.1" cy="283.7" r="23.3"/><ellipse id="_Path_115" data-name="&lt;Path&gt;" class="cls-2" cx="683.7" cy="166.7" rx="7.6" ry="17.4"/><ellipse id="_Path_116" data-name="&lt;Path&gt;" class="cls-2" cx="560.03" cy="304.29" rx="7.6" ry="17.4" transform="translate(39.78 395.81) rotate(-44.13)"/><ellipse id="_Path_117" data-name="&lt;Path&gt;" class="cls-2" cx="498.16" cy="403.96" rx="17.4" ry="7.6" transform="translate(-10.27 545.1) rotate(-59.21)"/><ellipse id="_Path_118" data-name="&lt;Path&gt;" class="cls-2" cx="651.5" cy="503.8" rx="7.6" ry="17.4" transform="translate(92.89 -79.08) rotate(-0.08)"/><ellipse id="_Path_119" data-name="&lt;Path&gt;" class="cls-2" cx="627.67" cy="289.96" rx="17.4" ry="7.6" transform="translate(126.36 562.27) rotate(-55.43)"/><ellipse id="_Path_120" data-name="&lt;Path&gt;" class="cls-2" cx="624.3" cy="368.81" rx="13.5" ry="5.9" transform="translate(59.98 593.61) rotate(-55.43)"/><line id="_Path_121" data-name="&lt;Path&gt;" class="cls-6" x1="687.3" y1="276.7" x2="709.8" y2="256.7"/><line id="_Path_122" data-name="&lt;Path&gt;" class="cls-6" x1="687.3" y1="310.7" x2="659.3" y2="288.8"/><g id="_Group_56" data-name="&lt;Group&gt;"><polyline id="_Path_123" data-name="&lt;Path&gt;" class="cls-9" points="181.6 197.2 161.1 197.2 161.1 149.8 144.6 149.8 154.5 130.7"/><path id="_Path_124" data-name="&lt;Path&gt;" class="cls-4" d="M72.5,272.2V224.8H59.2l7.3-14.1H88v61.5Z" transform="translate(93.6 -80)"/><polyline id="_Path_125" data-name="&lt;Path&gt;" class="cls-9" points="262.3 197.2 238.7 197.2 226 179.8 226 197.2 199.2 197.2 199.2 130.1"/><path id="_Path_126" data-name="&lt;Path&gt;" class="cls-4" d="M110.6,272.2V210.1h16.8v28.2L147,210.1h19.7l-23,30.3,24.9,31.8H147.5l-20.2-27.9v27.9H110.6Z" transform="translate(93.6 -80)"/></g><path class="cls-7" d="M57.9,292.3h7.2v1.4H59.5V298H64v1.4H59.5v5.8H57.8V292.3Z" transform="translate(93.6 -80)"/><path class="cls-7" d="M73,305.3a6.5,6.5,0,1,1,6.4-6.5A6.28,6.28,0,0,1,73,305.3Zm0-1.5c2.7,0,4.7-2,4.7-5.1s-2-5.1-4.7-5.1-4.7,1.9-4.7,5.1A4.63,4.63,0,0,0,73,303.8Z" transform="translate(93.6 -80)"/><path class="cls-7" d="M83.2,292.3v11.4h4.5v1.4H81.6V292.3Z" transform="translate(93.6 -80)"/><path class="cls-7" d="M91.2,292.3v11.4h4.5v1.4H89.6V292.3Z" transform="translate(93.6 -80)"/><path class="cls-7" d="M103.2,305.3a6.5,6.5,0,1,1,6.4-6.5A6.28,6.28,0,0,1,103.2,305.3Zm0-1.5c2.7,0,4.7-2,4.7-5.1s-2-5.1-4.7-5.1-4.7,1.9-4.7,5.1S100.5,303.8,103.2,303.8Z" transform="translate(93.6 -80)"/><path class="cls-7" d="M110.8,292.3h1.8l2.8,10.8,3.1-10.8h1.9l2.9,10.8,2.8-10.8h1.8l-3.7,12.8h-1.9l-3-10.3-3.1,10.3h-1.9Z" transform="translate(93.6 -80)"/><path class="cls-7" d="M136.6,293.7h-5.2V298h4.7v1.4h-4.7v4.4h5.2v1.4h-6.9V292.4h6.9Z" transform="translate(93.6 -80)"/><path class="cls-7" d="M143.3,292.3c3,0,4.4,1.7,4.4,3.8a3.68,3.68,0,0,1-3,3.7l3.2,5.4h-2l-3-5.2h-2v5.2h-1.7V292.4h4.1Zm0,1.4h-2.5v4.8h2.5c1.9,0,2.7-1,2.7-2.5C146,294.7,145.2,293.7,143.3,293.7Z" transform="translate(93.6 -80)"/><path class="cls-7" d="M154.3,305.3c-2.6,0-4.4-1.4-4.4-3.5h1.8a2.33,2.33,0,0,0,2.6,2.1c1.6,0,2.6-.9,2.6-2.1,0-3.4-6.9-1.2-6.9-6,0-2.1,1.7-3.5,4.2-3.5s4,1.3,4.2,3.3h-1.8c-.1-.9-.9-1.8-2.5-1.9-1.4,0-2.5.7-2.5,2.1,0,3.3,6.9,1.2,6.9,6C158.6,303.5,157.1,305.3,154.3,305.3Z" transform="translate(93.6 -80)"/><line id="_Path_127" data-name="&lt;Path&gt;" class="cls-6" x1="687.3" y1="235.7" x2="687.3" y2="515.7"/><path id="_Path_128" data-name="&lt;Path&gt;" class="cls-5" d="M275.7,397s-12.1,16.8-13.6,18.3-40.8,7.3-40.8,7.3l-4.4,14.7s48.8-3.5,53.3-8,17-20.7,17-20.7Z" transform="translate(93.6 -80)"/><path id="_Path_129" data-name="&lt;Path&gt;" class="cls-6" d="M275.7,397s-12.1,16.8-13.6,18.3-45.3,7.3-45.3,7.3l-4.4,14.7s53.2-3.5,57.7-8,17-20.7,17-20.7Z" transform="translate(93.6 -80)"/><circle id="_Path_130" data-name="&lt;Path&gt;" class="cls-5" cx="462.7" cy="456" r="59.7"/><circle id="_Path_131" data-name="&lt;Path&gt;" class="cls-5" cx="280.6" cy="456" r="59.7"/><circle id="_Path_132" data-name="&lt;Path&gt;" class="cls-6" cx="280.6" cy="456" r="59.7"/><path id="_Path_133" data-name="&lt;Path&gt;" class="cls-10" d="M187,575.7A39.7,39.7,0,1,1,226.7,536,39.73,39.73,0,0,1,187,575.7Z" transform="translate(93.6 -80)"/><path id="_Path_134" data-name="&lt;Path&gt;" class="cls-2" d="M152.1,554.8a39.67,39.67,0,0,1,11.9-51" transform="translate(93.6 -80)"/><path id="_Path_135" data-name="&lt;Path&gt;" class="cls-2" d="M210.1,517.4a29.71,29.71,0,0,1,4.6,29" transform="translate(93.6 -80)"/><line id="_Path_136" data-name="&lt;Path&gt;" class="cls-6" x1="280.6" y1="456" x2="310.4" y2="357.3"/><path id="_Path_137" data-name="&lt;Path&gt;" class="cls-7" d="M187,543a7,7,0,1,1,7-7A7.09,7.09,0,0,1,187,543Z" transform="translate(93.6 -80)"/><path id="_Path_138" data-name="&lt;Path&gt;" class="cls-6" d="M187,543a7,7,0,1,1,7-7A7.09,7.09,0,0,1,187,543Z" transform="translate(93.6 -80)"/><circle id="_Path_139" data-name="&lt;Path&gt;" class="cls-6" cx="462.7" cy="456" r="59.7"/><path id="_Path_140" data-name="&lt;Path&gt;" class="cls-10" d="M369.1,575.7A39.7,39.7,0,1,1,408.8,536,39.73,39.73,0,0,1,369.1,575.7Z" transform="translate(93.6 -80)"/><path id="_Path_141" data-name="&lt;Path&gt;" class="cls-2" d="M376.5,497a39.71,39.71,0,0,1,32.3,39" transform="translate(93.6 -80)"/><path id="_Path_142" data-name="&lt;Path&gt;" class="cls-2" d="M363.6,565.2a29.91,29.91,0,0,1-18.4-11.6" transform="translate(93.6 -80)"/><polygon id="_Path_143" data-name="&lt;Path&gt;" class="cls-6" points="309.3 375.8 364.2 458 463.1 457.9 408.2 375.7 309.3 375.8"/><circle id="_Path_144" data-name="&lt;Path&gt;" class="cls-5" cx="368.2" cy="278.1" r="26.2"/><line id="_Path_145" data-name="&lt;Path&gt;" class="cls-6" x1="380.9" y1="267.4" x2="361.5" y2="304.3"/><circle id="_Path_146" data-name="&lt;Path&gt;" class="cls-6" cx="368.2" cy="278.1" r="26.2"/><path id="_Path_147" data-name="&lt;Path&gt;" class="cls-11" d="M308.1,354.1c2.1-9.6.8-18.4-4.3-24.5-10.9-13-36.1-9.4-57.3,8.4a84.61,84.61,0,0,0-14.7,16h76.3Z" transform="translate(93.6 -80)"/><path id="_Path_148" data-name="&lt;Path&gt;" class="cls-12" d="M303.8,329.6c-6.7-8-18.7-9.7-31.9-5.7,7.1.4,13.1,2.9,17.1,7.7,4.7,5.7,6.2,13.6,4.7,22.5h14.4C310.1,344.4,308.9,335.7,303.8,329.6Z" transform="translate(93.6 -80)"/><path id="_Path_149" data-name="&lt;Path&gt;" class="cls-6" d="M308.1,354.1c2.1-9.6.8-18.4-4.3-24.5-10.9-13-36.1-9.4-57.3,8.4a84.61,84.61,0,0,0-14.7,16h76.3Z" transform="translate(93.6 -80)"/><path id="_Path_150" data-name="&lt;Path&gt;" class="cls-5" d="M285.1,469.7s-7.6,6.2-10.4,9-1.5,55.3-1.5,55.3h14.2s4.8-41.8,6.7-43.7,12.1-8.7,12.1-8.7Z" transform="translate(93.6 -80)"/><path id="_Path_151" data-name="&lt;Path&gt;" class="cls-6" d="M285.1,469.7s-7.6,6.2-10.4,9-1.5,55.3-1.5,55.3h14.2s4.8-41.8,6.7-43.7,12.1-8.7,12.1-8.7Z" transform="translate(93.6 -80)"/><path id="_Path_152" data-name="&lt;Path&gt;" class="cls-10" d="M273.2,396.7l13.2,17,6.2-7.3,21.7,36.7,49.3,3s-31.9-51.7-47.2-63-23.4-6.1-26.9-2.7Z" transform="translate(93.6 -80)"/><path id="_Path_153" data-name="&lt;Path&gt;" class="cls-13" d="M332.2,444.1c-2.8-30-20-54.7-42.9-63.6l-16.1,16.1,13.2,17,6.2-7.3L314.3,443Z" transform="translate(93.6 -80)"/><path id="_Path_154" data-name="&lt;Path&gt;" class="cls-6" d="M273.2,396.7l13.2,17,6.2-7.3,21.7,39.7h49.3s-31.9-51.7-47.2-63-23.4-6.1-26.9-2.7Z" transform="translate(93.6 -80)"/><path id="_Path_155" data-name="&lt;Path&gt;" class="cls-4" d="M293.5,550.2H259.9v-5.5a9.2,9.2,0,0,1,8.6-9.2l24.9-1.4v16.1Z" transform="translate(93.6 -80)"/><path id="_Path_156" data-name="&lt;Path&gt;" class="cls-6" d="M293.5,550.2H259.9v-5.5a9.2,9.2,0,0,1,8.6-9.2l24.9-1.4v16.1Z" transform="translate(93.6 -80)"/><path id="_Path_157" data-name="&lt;Path&gt;" class="cls-11" d="M282.9,468l23.2,17.7s49.9-17,57.5-39.7H314.3Z" transform="translate(93.6 -80)"/><path id="_Path_158" data-name="&lt;Path&gt;" class="cls-14" d="M331.3,446h-17l-31.4,22,5.6,4.3c1.2-.2,2.4-.4,3.7-.6C311.8,467.7,327.1,457.2,331.3,446Z" transform="translate(93.6 -80)"/><path id="_Path_159" data-name="&lt;Path&gt;" class="cls-6" d="M282.9,468l23.2,17.7s49.9-17,57.5-39.7H314.3Z" transform="translate(93.6 -80)"/><path id="_Path_160" data-name="&lt;Path&gt;" class="cls-7" d="M369.5,545a7,7,0,1,1,7-7A7.09,7.09,0,0,1,369.5,545Z" transform="translate(93.6 -80)"/><path id="_Path_161" data-name="&lt;Path&gt;" class="cls-6" d="M369.5,545a7,7,0,1,1,7-7A7.09,7.09,0,0,1,369.5,545Z" transform="translate(93.6 -80)"/><line id="_Path_162" data-name="&lt;Path&gt;" class="cls-6" x1="449.4" y1="251.2" x2="457.2" y2="251.2"/><line id="_Path_163" data-name="&lt;Path&gt;" class="cls-6" x1="387.1" y1="251.2" x2="436.3" y2="251.2"/><line id="_Path_164" data-name="&lt;Path&gt;" class="cls-6" x1="488.3" y1="472.2" x2="561.3" y2="472.2"/><line id="_Path_165" data-name="&lt;Path&gt;" class="cls-6" x1="574.9" y1="433.7" x2="581.9" y2="433.7"/><line id="_Path_166" data-name="&lt;Path&gt;" class="cls-6" x1="533.8" y1="433.7" x2="561.3" y2="433.7"/><line id="_Path_167" data-name="&lt;Path&gt;" class="cls-6" x1="450.9" y1="307" x2="489.2" y2="307"/><line id="_Path_168" data-name="&lt;Path&gt;" class="cls-6" x1="245.7" y1="392.3" x2="212.2" y2="392.3"/><line id="_Path_169" data-name="&lt;Path&gt;" class="cls-6" x1="274.3" y1="375.7" x2="257.5" y2="375.7"/></svg>