<svg id="Layer_1" data-name="Layer 1" xmlns="http://www.w3.org/2000/svg" viewBox="0 0 638.3 322.7"><defs><style>.cls-1{fill:#c9c9c9;}.cls-2{fill:#cfcfce;}.cls-3{fill:#fff;}.cls-14,.cls-16,.cls-18,.cls-19,.cls-20,.cls-21,.cls-22,.cls-4{fill:none;}.cls-4,.cls-6{stroke:#1f3a6a;}.cls-14,.cls-16,.cls-18,.cls-19,.cls-20,.cls-21,.cls-22,.cls-4,.cls-6{stroke-linecap:round;stroke-linejoin:round;}.cls-18,.cls-19,.cls-20,.cls-21,.cls-22,.cls-4,.cls-6{stroke-width:4px;}.cls-5{fill:#ef4444;}.cls-17,.cls-6{fill:#1f3a6a;}.cls-6{opacity:0.28;}.cls-14,.cls-6{isolation:isolate;}.cls-7{fill:#51b46e;}.cls-8{fill:#5d63ad;}.cls-9{fill:#f6f9fd;}.cls-10{fill:#c0cfe1;}.cls-11{fill:#2f435f;}.cls-12{fill:#d0def0;}.cls-13{fill:#5399d3;}.cls-14,.cls-16,.cls-18{stroke:#fff;}.cls-14,.cls-16{stroke-width:2px;}.cls-14,.cls-15{opacity:0.34;}.cls-19{stroke:#96ce91;}.cls-20{stroke:#7a6bb0;}.cls-21{stroke:#fdc47f;}.cls-22{stroke:#f15a5a;}.cls-23{fill:#f9a266;}.cls-24{fill:#f05555;}.cls-25{fill:#6768af;}</style></defs><title>funny</title><g id="_Group_" data-name="&lt;Group&gt;"><path id="_Path_" data-name="&lt;Path&gt;" class="cls-1" d="M648.5,590.3H28.2a9,9,0,0,1-9-9h0a9,9,0,0,1,9-9H648.5a9,9,0,0,1,9,9h0A9,9,0,0,1,648.5,590.3Z" transform="translate(-19.2 -267.6)"/><g id="_Group_2" data-name="&lt;Group&gt;"><g id="_Group_3" data-name="&lt;Group&gt;"><path id="_Path_2" data-name="&lt;Path&gt;" class="cls-2" d="M144.9,497.3a17.3,17.3,0,0,1,0-34.6h98v34.7h-98Z" transform="translate(-19.2 -267.6)"/><path id="_Path_3" data-name="&lt;Path&gt;" class="cls-3" d="M248.6,503.3H144.9A23.32,23.32,0,0,1,121.6,480h0a23.32,23.32,0,0,1,23.3-23.3H248.6v46.6Z" transform="translate(-19.2 -267.6)"/><line id="_Path_4" data-name="&lt;Path&gt;" class="cls-4" x1="119.3" y1="207" x2="223.7" y2="207"/><line id="_Path_5" data-name="&lt;Path&gt;" class="cls-4" x1="119.3" y1="217.6" x2="223.7" y2="217.6"/><path id="_Path_6" data-name="&lt;Path&gt;" class="cls-4" d="M144.9,497.3a17.3,17.3,0,0,1,0-34.6h98v34.7h-98Z" transform="translate(-19.2 -267.6)"/><path id="_Path_7" data-name="&lt;Path&gt;" class="cls-5" d="M144.9,497.3a17.3,17.3,0,0,1,0-34.6h99.7l4-6H144.9A23.32,23.32,0,0,0,121.6,480h0a23.32,23.32,0,0,0,23.3,23.3H248.6l-4-6Z" transform="translate(-19.2 -267.6)"/><path id="_Path_8" data-name="&lt;Path&gt;" class="cls-4" d="M144.9,497.3a17.3,17.3,0,0,1,0-34.6h99.7l4-6H144.9A23.32,23.32,0,0,0,121.6,480h0a23.32,23.32,0,0,0,23.3,23.3H248.6l-4-6Z" transform="translate(-19.2 -267.6)"/><rect id="_Path_9" data-name="&lt;Path&gt;" class="cls-6" x="188.7" y="189" width="18.4" height="46.7"/></g><g id="_Group_4" data-name="&lt;Group&gt;"><path id="_Path_10" data-name="&lt;Path&gt;" class="cls-7" d="M237.9,541.8H48a6.81,6.81,0,0,1-6.8-6.8V510a6.81,6.81,0,0,1,6.8-6.8H237.9a6.81,6.81,0,0,1,6.8,6.8v25A6.74,6.74,0,0,1,237.9,541.8Z" transform="translate(-19.2 -267.6)"/><path class="cls-3" d="M99.3,523.8H96.7v5.5H95V516h4.3c3.1,0,4.6,1.7,4.6,3.9C103.9,521.9,102.6,523.8,99.3,523.8Zm0-1.5c2,0,2.8-.9,2.8-2.4s-.8-2.5-2.8-2.5H96.7v4.9Z" transform="translate(-19.2 -267.6)"/><path class="cls-3" d="M108.7,516h1.9l3.3,6.7,3.3-6.7h1.9l-4.3,8.3v5h-1.7v-5Z" transform="translate(-19.2 -267.6)"/><path class="cls-3" d="M123.9,516h9v1.4h-3.6v11.9h-1.7V517.4H124V516Z" transform="translate(-19.2 -267.6)"/><path class="cls-3" d="M147.4,523.3h-6.8v6h-1.7V516h1.7v5.8h6.8V516h1.7v13.3h-1.7Z" transform="translate(-19.2 -267.6)"/><path class="cls-3" d="M161.9,529.4a6.8,6.8,0,1,1,6.7-6.8A6.6,6.6,0,0,1,161.9,529.4Zm0-1.5c2.8,0,4.9-2,4.9-5.3s-2.1-5.3-4.9-5.3-4.9,2-4.9,5.3S159.1,527.9,161.9,527.9Z" transform="translate(-19.2 -267.6)"/><path class="cls-3" d="M185.1,516v13.3h-1.7l-7-10.6v10.6h-1.7V516h1.7l7,10.5V516Z" transform="translate(-19.2 -267.6)"/><path id="_Path_11" data-name="&lt;Path&gt;" class="cls-4" d="M237.9,541.8H48a6.81,6.81,0,0,1-6.8-6.8V510a6.81,6.81,0,0,1,6.8-6.8H237.9a6.81,6.81,0,0,1,6.8,6.8v25A6.74,6.74,0,0,1,237.9,541.8Z" transform="translate(-19.2 -267.6)"/></g><path id="_Path_12" data-name="&lt;Path&gt;" class="cls-6" d="M237.9,503.3h-30v15A17.09,17.09,0,0,0,225,535.4h19.7V510.1A6.74,6.74,0,0,0,237.9,503.3Z" transform="translate(-19.2 -267.6)"/><path id="_Path_13" data-name="&lt;Path&gt;" class="cls-2" d="M291.4,549.6H71.4a30.93,30.93,0,0,1,2,11.4,31.31,31.31,0,0,1-2,11.4H291.3a30.93,30.93,0,0,1-2-11.4A32.63,32.63,0,0,1,291.4,549.6Z" transform="translate(-19.2 -267.6)"/><rect id="_Path_14" data-name="&lt;Path&gt;" class="cls-8" x="46.3" y="275.9" width="231.9" height="6"/><rect id="_Path_15" data-name="&lt;Path&gt;" class="cls-4" x="46.3" y="275.9" width="231.9" height="6"/><rect id="_Path_16" data-name="&lt;Path&gt;" class="cls-9" x="46.3" y="304.7" width="231.9" height="6"/><rect id="_Path_17" data-name="&lt;Path&gt;" class="cls-8" x="46.3" y="304.7" width="231.9" height="6"/><rect id="_Path_18" data-name="&lt;Path&gt;" class="cls-4" x="46.3" y="304.7" width="231.9" height="6"/><path id="_Path_19" data-name="&lt;Path&gt;" class="cls-10" d="M412.6,557l-3-33.7H360.2l-3,33.7c-.7,7.8-5.4,15.3-12.8,21.3v.1h81v-.1C418,572.3,413.3,564.8,412.6,557Z" transform="translate(-19.2 -267.6)"/><polygon id="_Path_20" data-name="&lt;Path&gt;" class="cls-6" points="341 255.7 339.2 275.9 392.2 275.9 390.4 255.7 341 255.7"/><path id="_Path_21" data-name="&lt;Path&gt;" class="cls-4" d="M412.6,557l-3-33.7H360.2l-3,33.7c-.7,7.8-5.4,15.3-12.8,21.3v.1h81v-.1C418,572.3,413.3,564.8,412.6,557Z" transform="translate(-19.2 -267.6)"/><path id="_Path_22" data-name="&lt;Path&gt;" class="cls-3" d="M542.9,528.3h-316a12,12,0,0,1-12-12v-206a12,12,0,0,1,12-12h316a12,12,0,0,1,12,12v206A12,12,0,0,1,542.9,528.3Z" transform="translate(-19.2 -267.6)"/><path id="_Path_23" data-name="&lt;Path&gt;" class="cls-10" d="M542.9,528.3h-316a12,12,0,0,1-12-12v-206a12,12,0,0,1,12-12h316a12,12,0,0,1,12,12v206A12,12,0,0,1,542.9,528.3Z" transform="translate(-19.2 -267.6)"/><path id="_Path_24" data-name="&lt;Path&gt;" class="cls-4" d="M542.9,528.3h-316a12,12,0,0,1-12-12v-206a12,12,0,0,1,12-12h316a12,12,0,0,1,12,12v206A12,12,0,0,1,542.9,528.3Z" transform="translate(-19.2 -267.6)"/><rect id="_Path_25" data-name="&lt;Path&gt;" class="cls-9" x="212.76" y="47.73" width="306" height="174.6"/><path id="_Path_26" data-name="&lt;Path&gt;" class="cls-6" d="M242.9,298.3V436.9a8,8,0,0,0,8,8H440a8,8,0,0,0,8-8V298.3Z" transform="translate(-19.2 -267.6)"/><rect id="_Path_27" data-name="&lt;Path&gt;" class="cls-4" x="212.76" y="47.73" width="306" height="174.6"/><line id="_Path_28" data-name="&lt;Path&gt;" class="cls-4" x1="352.3" y1="241.4" x2="379.2" y2="241.4"/><path id="_Path_29" data-name="&lt;Path&gt;" class="cls-11" d="M449,433.9H259.9a8,8,0,0,1-8-8V277.7a8,8,0,0,1,8-8H449a8,8,0,0,1,8,8V426A7.94,7.94,0,0,1,449,433.9Z" transform="translate(-19.2 -267.6)"/><path id="_Path_30" data-name="&lt;Path&gt;" class="cls-4" d="M457,289.1H251.9V277.6a8,8,0,0,1,8-8H449a8,8,0,0,1,8,8Z" transform="translate(-19.2 -267.6)"/><path id="_Path_31" data-name="&lt;Path&gt;" class="cls-12" d="M457,292.9H251.9V277.6a8,8,0,0,1,8-8H449a8,8,0,0,1,8,8Z" transform="translate(-19.2 -267.6)"/><path id="_Path_32" data-name="&lt;Path&gt;" class="cls-4" d="M457,292.9H251.9V277.6a8,8,0,0,1,8-8H449a8,8,0,0,1,8,8Z" transform="translate(-19.2 -267.6)"/><path id="_Path_33" data-name="&lt;Path&gt;" class="cls-4" d="M457,292.9H251.9V277.6a8,8,0,0,1,8-8H449a8,8,0,0,1,8,8Z" transform="translate(-19.2 -267.6)"/><path id="_Path_34" data-name="&lt;Path&gt;" class="cls-4" d="M449,433.9H259.9a8,8,0,0,1-8-8V277.7a8,8,0,0,1,8-8H449a8,8,0,0,1,8,8V426A7.94,7.94,0,0,1,449,433.9Z" transform="translate(-19.2 -267.6)"/><g id="_Group_5" data-name="&lt;Group&gt;"><path id="_Path_35" data-name="&lt;Path&gt;" class="cls-6" d="M547.7,469.3h-116a8,8,0,0,1-8-8V338.4a8,8,0,0,1,8-8h116a8,8,0,0,1,8,8V461.3A8,8,0,0,1,547.7,469.3Z" transform="translate(-19.2 -267.6)"/><path id="_Path_36" data-name="&lt;Path&gt;" class="cls-13" d="M555.7,462.3h-116a8,8,0,0,1-8-8V331.4a8,8,0,0,1,8-8h116a8,8,0,0,1,8,8V454.3A8,8,0,0,1,555.7,462.3Z" transform="translate(-19.2 -267.6)"/><path id="_Path_37" data-name="&lt;Path&gt;" class="cls-4" d="M555.7,462.3h-116a8,8,0,0,1-8-8V331.4a8,8,0,0,1,8-8h116a8,8,0,0,1,8,8V454.3A8,8,0,0,1,555.7,462.3Z" transform="translate(-19.2 -267.6)"/><path id="_Path_38" data-name="&lt;Path&gt;" class="cls-14" d="M538.4,361.5H456.8a5.16,5.16,0,0,1-5.2-5.2v-7.8a5.16,5.16,0,0,1,5.2-5.2h81.6a5.16,5.16,0,0,1,5.2,5.2v7.8A5.16,5.16,0,0,1,538.4,361.5Z" transform="translate(-19.2 -267.6)"/><g id="_Group_6" data-name="&lt;Group&gt;" class="cls-15"><path id="_Path_39" data-name="&lt;Path&gt;" class="cls-16" d="M502.6,390.8H457a5.16,5.16,0,0,1-5.2-5.2v-7.8a5.16,5.16,0,0,1,5.2-5.2h45.6a5.16,5.16,0,0,1,5.2,5.2v7.8A5.29,5.29,0,0,1,502.6,390.8Z" transform="translate(-19.2 -267.6)"/><path id="_Path_40" data-name="&lt;Path&gt;" class="cls-16" d="M538.5,390.8H520.8a5.16,5.16,0,0,1-5.2-5.2v-7.8a5.16,5.16,0,0,1,5.2-5.2h17.7a5.16,5.16,0,0,1,5.2,5.2v7.8A5.16,5.16,0,0,1,538.5,390.8Z" transform="translate(-19.2 -267.6)"/></g><g id="_Group_7" data-name="&lt;Group&gt;"><line id="_Path_41" data-name="&lt;Path&gt;" class="cls-16" x1="432.5" y1="153.6" x2="524.4" y2="153.6"/><line id="_Path_42" data-name="&lt;Path&gt;" class="cls-16" x1="432.5" y1="164.4" x2="524.4" y2="164.4"/><line id="_Path_43" data-name="&lt;Path&gt;" class="cls-16" x1="432.5" y1="175.2" x2="488.5" y2="175.2"/></g></g><circle id="_Path_44" data-name="&lt;Path&gt;" class="cls-17" cx="252.8" cy="13.7" r="4"/><circle id="_Path_45" data-name="&lt;Path&gt;" class="cls-17" cx="266.7" cy="13.7" r="4"/><circle id="_Path_46" data-name="&lt;Path&gt;" class="cls-17" cx="280.6" cy="13.7" r="4"/><g id="_Group_8" data-name="&lt;Group&gt;"><line id="_Path_47" data-name="&lt;Path&gt;" class="cls-18" x1="350.5" y1="43.8" x2="363.5" y2="43.8"/><line id="_Path_48" data-name="&lt;Path&gt;" class="cls-19" x1="284.6" y1="43.8" x2="340.9" y2="43.8"/><line id="_Path_49" data-name="&lt;Path&gt;" class="cls-20" x1="256.8" y1="43.8" x2="276.6" y2="43.8"/></g><g id="_Group_9" data-name="&lt;Group&gt;"><line id="_Path_50" data-name="&lt;Path&gt;" class="cls-20" x1="282.6" y1="142.3" x2="325.6" y2="142.3"/><line id="_Path_51" data-name="&lt;Path&gt;" class="cls-19" x1="256.8" y1="142.3" x2="270.7" y2="142.3"/></g><g id="_Group_10" data-name="&lt;Group&gt;"><line id="_Path_52" data-name="&lt;Path&gt;" class="cls-18" x1="340.9" y1="56.1" x2="349" y2="56.1"/><line id="_Path_53" data-name="&lt;Path&gt;" class="cls-20" x1="304.1" y1="56.1" x2="331.3" y2="56.1"/><line id="_Path_54" data-name="&lt;Path&gt;" class="cls-21" x1="266.7" y1="56.1" x2="294.4" y2="56.1"/></g><g id="_Group_11" data-name="&lt;Group&gt;"><line id="_Path_55" data-name="&lt;Path&gt;" class="cls-18" x1="309.6" y1="68.4" x2="333.5" y2="68.4"/><line id="_Path_56" data-name="&lt;Path&gt;" class="cls-22" x1="279.6" y1="68.4" x2="302.1" y2="68.4"/></g><g id="_Group_12" data-name="&lt;Group&gt;"><line id="_Path_57" data-name="&lt;Path&gt;" class="cls-18" x1="312.8" y1="80.7" x2="317.7" y2="80.7"/><line id="_Path_58" data-name="&lt;Path&gt;" class="cls-20" x1="293" y1="80.7" x2="304.1" y2="80.7"/><line id="_Path_59" data-name="&lt;Path&gt;" class="cls-19" x1="266.7" y1="80.7" x2="284.6" y2="80.7"/></g><g id="_Group_13" data-name="&lt;Group&gt;"><line id="_Path_60" data-name="&lt;Path&gt;" class="cls-21" x1="305.1" y1="93.1" x2="337" y2="93.1"/><line id="_Path_61" data-name="&lt;Path&gt;" class="cls-22" x1="266.7" y1="93.1" x2="295.3" y2="93.1"/></g><g id="_Group_14" data-name="&lt;Group&gt;"><line id="_Path_62" data-name="&lt;Path&gt;" class="cls-20" x1="342" y1="105.4" x2="359.3" y2="105.4"/><line id="_Path_63" data-name="&lt;Path&gt;" class="cls-22" x1="305.1" y1="105.4" x2="332.8" y2="105.4"/><line id="_Path_64" data-name="&lt;Path&gt;" class="cls-19" x1="279.6" y1="105.4" x2="295.3" y2="105.4"/></g><g id="_Group_15" data-name="&lt;Group&gt;"><line id="_Path_65" data-name="&lt;Path&gt;" class="cls-18" x1="317.7" y1="117.7" x2="332.8" y2="117.7"/><line id="_Path_66" data-name="&lt;Path&gt;" class="cls-20" x1="279.6" y1="117.7" x2="307.3" y2="117.7"/></g><g id="_Group_16" data-name="&lt;Group&gt;"><line id="_Path_67" data-name="&lt;Path&gt;" class="cls-18" x1="357" y1="130" x2="374.3" y2="130"/><line id="_Path_68" data-name="&lt;Path&gt;" class="cls-21" x1="304.1" y1="130" x2="347.6" y2="130"/><line id="_Path_69" data-name="&lt;Path&gt;" class="cls-18" x1="266.7" y1="130" x2="294.4" y2="130"/></g><line id="_Path_70" data-name="&lt;Path&gt;" class="cls-4" x1="54.7" y1="288.9" x2="270.2" y2="288.9"/><line id="_Path_71" data-name="&lt;Path&gt;" class="cls-4" x1="54.7" y1="296.9" x2="270.2" y2="296.9"/><path id="_Path_72" data-name="&lt;Path&gt;" class="cls-4" d="M291.4,549.6H71.4a30.93,30.93,0,0,1,2,11.4,31.31,31.31,0,0,1-2,11.4H291.3a30.93,30.93,0,0,1-2-11.4A32.63,32.63,0,0,1,291.4,549.6Z" transform="translate(-19.2 -267.6)"/></g><g id="_Group_17" data-name="&lt;Group&gt;"><g id="_Group_18" data-name="&lt;Group&gt;"><rect id="_Path_73" data-name="&lt;Path&gt;" class="cls-23" x="581.82" y="468.39" width="9.8" height="72.6" transform="translate(-74.04 -195.75) rotate(-6.7)"/><rect id="_Path_74" data-name="&lt;Path&gt;" class="cls-13" x="578.03" y="468.69" width="9.8" height="7.4" transform="translate(-70.3 -196.41) rotate(-6.7)"/><rect id="_Path_75" data-name="&lt;Path&gt;" class="cls-4" x="578.03" y="468.69" width="9.8" height="7.4" transform="translate(-70.3 -196.41) rotate(-6.7)"/><rect id="_Path_76" data-name="&lt;Path&gt;" class="cls-4" x="581.82" y="468.39" width="9.8" height="72.6" transform="translate(-74.04 -195.75) rotate(-6.7)"/></g><g id="_Group_19" data-name="&lt;Group&gt;"><rect id="_Path_77" data-name="&lt;Path&gt;" class="cls-24" x="568.95" y="513.5" width="72.6" height="9.8" transform="translate(5.26 796.45) rotate(-83.79)"/><rect id="_Path_78" data-name="&lt;Path&gt;" class="cls-4" x="568.95" y="513.5" width="72.6" height="9.8" transform="translate(5.26 796.45) rotate(-83.79)"/><rect id="_Path_79" data-name="&lt;Path&gt;" class="cls-11" x="605.14" y="481.11" width="7.4" height="9.8" transform="translate(40.66 771.14) rotate(-83.79)"/><rect id="_Path_80" data-name="&lt;Path&gt;" class="cls-4" x="605.14" y="481.11" width="7.4" height="9.8" transform="translate(40.66 771.14) rotate(-83.79)"/></g><polygon id="_Path_81" data-name="&lt;Path&gt;" class="cls-25" points="600.9 311 561.6 311 555.2 250.8 607.3 250.8 600.9 311"/><polygon id="_Path_82" data-name="&lt;Path&gt;" class="cls-25" points="555.2 250.8 555.3 251.9 595 251.9 588.7 311 600.9 311 607.3 250.8 555.2 250.8"/><polygon id="_Path_83" data-name="&lt;Path&gt;" class="cls-4" points="600.9 311 561.6 311 555.2 250.8 607.3 250.8 600.9 311"/></g></g></svg>