<svg id="Layer_1" data-name="Layer 1" xmlns="http://www.w3.org/2000/svg" viewBox="0 0 470.2 564.61"><defs><style>.cls-1{fill:#6acde9;opacity:0.64;}.cls-1,.cls-17,.cls-18,.cls-4,.cls-8{isolation:isolate;}.cls-2{fill:#282323;}.cls-19,.cls-2,.cls-24,.cls-25,.cls-5{stroke:#010101;stroke-linecap:round;stroke-linejoin:round;}.cls-2,.cls-5{stroke-width:4px;}.cls-3,.cls-4{fill:#452d2b;}.cls-4{opacity:0.37;}.cls-19,.cls-24,.cls-25,.cls-5{fill:none;}.cls-6,.cls-8{fill:#151e28;}.cls-7{fill:#2b384a;}.cls-8{opacity:0.67;}.cls-9{fill:#9c2422;}.cls-10{fill:#f0554e;}.cls-11{opacity:0.24;}.cls-12{fill:#f16363;}.cls-13{fill:#fdc898;}.cls-14{fill:#e5a973;}.cls-15{fill:#617792;}.cls-16,.cls-18{fill:#b5b6b6;}.cls-17,.cls-21{fill:#7f7f7f;}.cls-17{opacity:0.21;}.cls-18{opacity:0.66;}.cls-19{stroke-width:6px;}.cls-20{fill:#010101;}.cls-22{fill:#231a17;}.cls-23{opacity:0.34;}.cls-24{stroke-width:3px;}.cls-25{stroke-width:2px;}</style></defs><title>me</title><g id="_Group_" data-name="&lt;Group&gt;"><ellipse id="_Path_" data-name="&lt;Path&gt;" class="cls-1" cx="235.1" cy="517.31" rx="235.1" ry="47.3"/><g id="_Group_2" data-name="&lt;Group&gt;"><path id="_Path_2" data-name="&lt;Path&gt;" class="cls-2" d="M193.5,633.2c3.3-10.7,13.4-16.4,29.8-21.2,10.4-3,23.6-4.4,44.3-8.6a63.74,63.74,0,0,0,17.2-6v11.5s-68.5,13.5-79.2,31.2c-5.2,8.7-3.6,30,20.9,32.2-7.5,1.1-19.8-.8-26.4-7.5C191.9,656.5,189.7,645.4,193.5,633.2Z" transform="translate(-71.1 -123.49)"/><path id="_Path_3" data-name="&lt;Path&gt;" class="cls-3" d="M284.8,608.9s-41,7.6-62.9,17c-19.2,8.3-18.6,16.9-19.1,25.7-.3,5.1,3.3,17.7,17.9,19.9,17.4,2.6,37.9-.2,64.1-16.9Z" transform="translate(-71.1 -123.49)"/><path id="_Path_4" data-name="&lt;Path&gt;" class="cls-4" d="M202.8,651.6c.4-7.1.1-14.1,10.1-20.9a61.5,61.5,0,0,0-.6,7.4c-.3,5.1,12-1.5,26.6.6,15.2,2.3,24.2,19.7,45.9,8v7.8c-26.2,16.7-46.7,19.4-64.1,16.9C206.1,669.3,202.5,656.6,202.8,651.6Z" transform="translate(-71.1 -123.49)"/><path id="_Path_5" data-name="&lt;Path&gt;" class="cls-5" d="M284.8,608.9s-41,7.6-62.9,17c-19.2,8.3-18.6,16.9-19.1,25.7-.3,5.1,3.3,17.7,17.9,19.9,17.4,2.6,37.9-.2,64.1-16.9Z" transform="translate(-71.1 -123.49)"/><path id="_Path_6" data-name="&lt;Path&gt;" class="cls-5" d="M246.8,632.4c-3.3,1.8-2.5,19.3,5.5,21.7" transform="translate(-71.1 -123.49)"/><path id="_Path_7" data-name="&lt;Path&gt;" class="cls-5" d="M259.3,631.1c-3.4,4.8-1,16.1,5.1,18.9" transform="translate(-71.1 -123.49)"/><path id="_Path_8" data-name="&lt;Path&gt;" class="cls-5" d="M270.8,627.1c-3.4,4.8-1,16.1,5.1,18.9" transform="translate(-71.1 -123.49)"/></g><path id="_Path_9" data-name="&lt;Path&gt;" class="cls-6" d="M388.8,575.3c-21.6,15-52.3,23.6-84.4,23.6s-62.8-8.6-84.4-23.6c-9.9-6.9-26.5-21.3-26.5-40.5s16.6-33.6,26.5-40.5c21.6-15,52.3-23.6,84.4-23.6s62.8,8.6,84.4,23.6c9.9,6.9,26.5,21.3,26.5,40.5S398.7,568.4,388.8,575.3Z" transform="translate(-71.1 -123.49)"/><path id="_Path_10" data-name="&lt;Path&gt;" class="cls-7" d="M487.7,550.8c-.4,2-.8,3.9-1.4,5.9C470.7,613.6,395.5,656.8,305,656.8c-90.7,0-166.1-43.4-181.4-100.5-.4-1.6-.8-3.2-1.1-4.8a27.23,27.23,0,0,1,.3-9c3.7-16.8,24.1-26.5,45.6-21.7,14.1,3.1,25.1,11.8,30,22.1a38.27,38.27,0,0,0,2.2,6.5c5.2,12,15.6,21,22.6,26C244.1,590.4,274,599,305,599s60.9-8.6,81.8-23.6c7.1-5.1,17.6-14.2,22.7-26.2a42.23,42.23,0,0,0,2-6c4.8-10.4,15.9-19.1,30.1-22.3,21.5-4.8,41.9,5,45.6,21.7A22.45,22.45,0,0,1,487.7,550.8Z" transform="translate(-71.1 -123.49)"/><path id="_Path_11" data-name="&lt;Path&gt;" class="cls-8" d="M487.2,542.4a7.36,7.36,0,0,0-.4-1.4,43.71,43.71,0,0,1-1.2,4.9C470.2,602.8,394.9,646,304.5,646c-90.7,0-166.1-43.4-181.4-100.5-.2-.6-.3-1.2-.5-1.9a24.9,24.9,0,0,0-.1,7.7c.3,1.6.7,3.2,1.1,4.8,15.3,57.1,90.7,100.5,181.4,100.5,90.5,0,165.7-43.2,181.3-100.1.5-1.9,1-3.9,1.4-5.9A23,23,0,0,0,487.2,542.4Z" transform="translate(-71.1 -123.49)"/><path id="_Path_12" data-name="&lt;Path&gt;" class="cls-5" d="M487.7,550.8c-.4,2-.8,3.9-1.4,5.9C470.7,613.6,395.5,656.8,305,656.8c-90.7,0-166.1-43.4-181.4-100.5-.4-1.6-.8-3.2-1.1-4.8a27.23,27.23,0,0,1,.3-9c3.7-16.8,24.1-26.5,45.6-21.7,14.1,3.1,25.1,11.8,30,22.1a38.27,38.27,0,0,0,2.2,6.5c5.2,12,15.6,21,22.6,26C244.1,590.4,274,599,305,599s60.9-8.6,81.8-23.6c7.1-5.1,17.6-14.2,22.7-26.2a42.23,42.23,0,0,0,2-6c4.8-10.4,15.9-19.1,30.1-22.3,21.5-4.8,41.9,5,45.6,21.7A22.45,22.45,0,0,1,487.7,550.8Z" transform="translate(-71.1 -123.49)"/><ellipse id="_Path_13" data-name="&lt;Path&gt;" class="cls-9" cx="235.1" cy="414.31" rx="90.1" ry="30.6"/><ellipse id="_Path_14" data-name="&lt;Path&gt;" class="cls-5" cx="235.1" cy="414.31" rx="90.1" ry="30.6"/><g id="_Group_3" data-name="&lt;Group&gt;"><path id="_Path_15" data-name="&lt;Path&gt;" class="cls-10" d="M408.8,471H201.2A26.38,26.38,0,0,1,175,441.3l9.2-73.5a41.83,41.83,0,0,1,41.6-36.7H384.4A42,42,0,0,1,426,367.8l9.2,73.5A26.63,26.63,0,0,1,408.8,471Z" transform="translate(-71.1 -123.49)"/><path id="_Path_16" data-name="&lt;Path&gt;" class="cls-5" d="M408.8,471H201.2A26.38,26.38,0,0,1,175,441.3l9.2-73.5a41.83,41.83,0,0,1,41.6-36.7H384.4A42,42,0,0,1,426,367.8l9.2,73.5A26.63,26.63,0,0,1,408.8,471Z" transform="translate(-71.1 -123.49)"/><path id="_Path_17" data-name="&lt;Path&gt;" class="cls-5" d="M229,393.2" transform="translate(-71.1 -123.49)"/><g id="_Group_4" data-name="&lt;Group&gt;"><line id="_Path_18" data-name="&lt;Path&gt;" class="cls-5" x1="152.6" y1="269.71" x2="150.6" y2="294.81"/><line id="_Path_19" data-name="&lt;Path&gt;" class="cls-5" x1="316.7" y1="269.71" x2="318.7" y2="294.81"/></g></g><g id="_Group_5" data-name="&lt;Group&gt;"><path id="_Path_20" data-name="&lt;Path&gt;" class="cls-10" d="M408.8,471H201.2A26.38,26.38,0,0,1,175,441.3l9.2-73.5a41.83,41.83,0,0,1,41.6-36.7H384.4A42,42,0,0,1,426,367.8l9.2,73.5A26.63,26.63,0,0,1,408.8,471Z" transform="translate(-71.1 -123.49)"/><g id="_Group_6" data-name="&lt;Group&gt;" class="cls-11"><path id="_Path_21" data-name="&lt;Path&gt;" class="cls-9" d="M184.1,375.6a41.83,41.83,0,0,1,41.6-36.7H384.3a42,42,0,0,1,41.6,36.7l9.1,72.9a28.78,28.78,0,0,0,.1-7.2l-9.2-73.5a41.83,41.83,0,0,0-41.6-36.7H225.7a42,42,0,0,0-41.6,36.7l-9.2,73.5a24.82,24.82,0,0,0,.1,7.2Z" transform="translate(-71.1 -123.49)"/><path id="_Path_22" data-name="&lt;Path&gt;" class="cls-9" d="M234.9,338.9s12.3,2.2,13.3,9c.8,5.5.7,9.1,2.8,11.3s7,6.7,16.9,6.7c-5.5-5.5-5.6-24.8-7.1-24.8s-5-9.6-5-9.6l-4.8-2.2C251.1,329.3,233.4,331.5,234.9,338.9Z" transform="translate(-71.1 -123.49)"/><path id="_Path_23" data-name="&lt;Path&gt;" class="cls-9" d="M366.3,338.9s-12.3,2.2-13.3,9c-.8,5.5-.7,9.1-2.8,11.3s-7,6.7-16.9,6.7c5.5-5.5,5.6-24.8,7.1-24.8s5-9.6,5-9.6l4.8-2.2C350.1,329.3,367.8,331.5,366.3,338.9Z" transform="translate(-71.1 -123.49)"/></g><path id="_Path_24" data-name="&lt;Path&gt;" class="cls-5" d="M408.8,471H201.2A26.38,26.38,0,0,1,175,441.3l9.2-73.5a41.83,41.83,0,0,1,41.6-36.7H384.4A42,42,0,0,1,426,367.8l9.2,73.5A26.63,26.63,0,0,1,408.8,471Z" transform="translate(-71.1 -123.49)"/><path id="_Path_25" data-name="&lt;Path&gt;" class="cls-5" d="M229,393.2" transform="translate(-71.1 -123.49)"/><g id="_Group_7" data-name="&lt;Group&gt;"><line id="_Path_26" data-name="&lt;Path&gt;" class="cls-5" x1="152.6" y1="269.71" x2="150.6" y2="294.81"/><line id="_Path_27" data-name="&lt;Path&gt;" class="cls-5" x1="316.7" y1="269.71" x2="318.7" y2="294.81"/></g></g><g id="_Group_8" data-name="&lt;Group&gt;"><path id="_Path_28" data-name="&lt;Path&gt;" class="cls-9" d="M278.3,289.3l-32.9-1.7L230,289.3s-10.3,7.7-10.3,9.8,1,19.2,1,19.2,24.3,3.3,26.9,5.8,18,16.9,18,16.9l14.9-5.8,7.8-20.8Z" transform="translate(-71.1 -123.49)"/><path id="_Path_29" data-name="&lt;Path&gt;" class="cls-10" d="M272.5,276.6h-38a27.8,27.8,0,0,0-27.8,27.8h0a27.8,27.8,0,0,0,27.8,27.8h5a14.55,14.55,0,0,1,14.6,14.6v1.5a17.63,17.63,0,0,0,17.6,17.6h0v-18a.43.43,0,0,1,.4.4v-1.5a32.61,32.61,0,0,0-32.6-32.6h-5a9.8,9.8,0,1,1,0-19.6h38Z" transform="translate(-71.1 -123.49)"/><path id="_Path_30" data-name="&lt;Path&gt;" class="cls-5" d="M270.2,335.5a32.8,32.8,0,0,0-30.6-21.4h-5a9.8,9.8,0,1,1,0-19.6h38v-18h-38a27.8,27.8,0,0,0-27.8,27.8h0a27.8,27.8,0,0,0,27.8,27.8h5a14.55,14.55,0,0,1,14.6,14.6v1.5a17.63,17.63,0,0,0,17.6,17.6" transform="translate(-71.1 -123.49)"/></g><g id="_Group_9" data-name="&lt;Group&gt;"><path id="_Path_31" data-name="&lt;Path&gt;" class="cls-9" d="M321.8,289.3l32.9-1.7,15.4,1.7s10.3,7.7,10.3,9.8-1,19.2-1,19.2-24.3,3.3-26.9,5.8-18,16.9-18,16.9l-14.9-5.8-7.8-20.8Z" transform="translate(-71.1 -123.49)"/><path id="_Path_32" data-name="&lt;Path&gt;" class="cls-10" d="M327.6,276.6h38a27.8,27.8,0,0,1,27.8,27.8h0a27.8,27.8,0,0,1-27.8,27.8h-5A14.55,14.55,0,0,0,346,346.8v1.5a17.63,17.63,0,0,1-17.6,17.6h0v-18a.43.43,0,0,0-.4.4v-1.5a32.61,32.61,0,0,1,32.6-32.6h5a9.8,9.8,0,0,0,0-19.6h-38Z" transform="translate(-71.1 -123.49)"/><path id="_Path_33" data-name="&lt;Path&gt;" class="cls-5" d="M330,335.5a32.8,32.8,0,0,1,30.6-21.4h5a9.8,9.8,0,1,0,0-19.6h-38v-18h38a27.8,27.8,0,0,1,27.8,27.8h0a27.8,27.8,0,0,1-27.8,27.8h-5A14.55,14.55,0,0,0,346,346.7v1.5a17.63,17.63,0,0,1-17.6,17.6" transform="translate(-71.1 -123.49)"/></g><circle id="_Path_34" data-name="&lt;Path&gt;" class="cls-12" cx="230.8" cy="189.21" r="39"/><path id="_Path_35" data-name="&lt;Path&gt;" class="cls-10" d="M264.6,301.2a69.15,69.15,0,0,0,37.3,11,68.3,68.3,0,0,0,37.3-11,39,39,0,0,0-74.6,0Z" transform="translate(-71.1 -123.49)"/><circle id="_Path_36" data-name="&lt;Path&gt;" class="cls-5" cx="230.8" cy="189.21" r="39"/><path id="_Path_37" data-name="&lt;Path&gt;" class="cls-13" d="M301.9,335.3h0a23,23,0,0,1-23-23V295.1a5.8,5.8,0,0,1,5.8-5.8h34.5a5.8,5.8,0,0,1,5.8,5.8v17.2A23.15,23.15,0,0,1,301.9,335.3Z" transform="translate(-71.1 -123.49)"/><path id="_Path_38" data-name="&lt;Path&gt;" class="cls-14" d="M319.2,289.3H284.7a6,6,0,0,0-5.8,6.2v14.1a65.08,65.08,0,0,0,46,0V295.5A6,6,0,0,0,319.2,289.3Z" transform="translate(-71.1 -123.49)"/><path id="_Path_39" data-name="&lt;Path&gt;" class="cls-5" d="M301.9,335.3h0a23,23,0,0,1-23-23V295.1a5.8,5.8,0,0,1,5.8-5.8h34.5a5.8,5.8,0,0,1,5.8,5.8v17.2A23.15,23.15,0,0,1,301.9,335.3Z" transform="translate(-71.1 -123.49)"/><path id="_Path_40" data-name="&lt;Path&gt;" class="cls-5" d="M279.7,324.2" transform="translate(-71.1 -123.49)"/><rect id="_Path_41" data-name="&lt;Path&gt;" class="cls-15" x="234.3" y="470.91" width="21.4" height="68.3"/><rect id="_Path_42" data-name="&lt;Path&gt;" class="cls-5" x="234.3" y="470.91" width="21.4" height="68.3"/><path id="_Path_43" data-name="&lt;Path&gt;" class="cls-5" d="M200.5,549.2a45.13,45.13,0,0,1-2.2-6.5A23.78,23.78,0,0,1,200.5,549.2Z" transform="translate(-71.1 -123.49)"/><path id="_Path_44" data-name="&lt;Path&gt;" class="cls-5" d="M409.6,549a24.9,24.9,0,0,1,2-6A38.39,38.39,0,0,1,409.6,549Z" transform="translate(-71.1 -123.49)"/><g id="_Group_10" data-name="&lt;Group&gt;"><path id="_Path_45" data-name="&lt;Path&gt;" class="cls-16" d="M409.3,544.2H200.8a14.87,14.87,0,0,1-14.7-12.9l-13-101.8a14.88,14.88,0,0,1,14.7-16.7H422.3A14.84,14.84,0,0,1,437,429.5L424,531.3A15,15,0,0,1,409.3,544.2Z" transform="translate(-71.1 -123.49)"/><path id="_Path_46" data-name="&lt;Path&gt;" class="cls-17" d="M423.9,524.9a14.72,14.72,0,0,1-14.7,12.9H200.8a14.87,14.87,0,0,1-14.7-12.9L173.3,424.6a16,16,0,0,0-.2,4.9l13,101.8a14.72,14.72,0,0,0,14.7,12.9H409.3A14.87,14.87,0,0,0,424,531.3l13-101.8a16,16,0,0,0-.2-4.9Z" transform="translate(-71.1 -123.49)"/><path id="_Path_47" data-name="&lt;Path&gt;" class="cls-17" d="M173.2,430.4a14.82,14.82,0,0,1,14.5-12.2H422.2a14.65,14.65,0,0,1,14.5,12.2l.1-1a14.88,14.88,0,0,0-14.7-16.7H187.8a14.84,14.84,0,0,0-14.7,16.7Z" transform="translate(-71.1 -123.49)"/><path id="_Path_48" data-name="&lt;Path&gt;" class="cls-5" d="M409.3,544.2H200.8a14.87,14.87,0,0,1-14.7-12.9l-13-101.8a14.88,14.88,0,0,1,14.7-16.7H422.3A14.84,14.84,0,0,1,437,429.5L424,531.3A15,15,0,0,1,409.3,544.2Z" transform="translate(-71.1 -123.49)"/><path id="_Path_49" data-name="&lt;Path&gt;" class="cls-18" d="M314.9,472.3a8.07,8.07,0,0,1-8.1-8.1,2.77,2.77,0,0,1,.1-.9,19.42,19.42,0,0,0-2.4-.2,13.3,13.3,0,1,0,13.3,13.3,16.18,16.18,0,0,0-.7-4.4A14.6,14.6,0,0,1,314.9,472.3Z" transform="translate(-71.1 -123.49)"/></g><g id="_Group_11" data-name="&lt;Group&gt;"><path id="_Path_50" data-name="&lt;Path&gt;" class="cls-2" d="M418.1,633.2c-3.3-10.7-13.4-16.4-29.8-21.2-10.4-3-23.6-4.4-44.3-8.6a63.74,63.74,0,0,1-17.2-6v11.5s68.5,13.5,79.2,31.2c5.2,8.7,3.6,30-20.9,32.2,7.5,1.1,19.8-.8,26.4-7.5C419.7,656.5,421.9,645.4,418.1,633.2Z" transform="translate(-71.1 -123.49)"/><path id="_Path_51" data-name="&lt;Path&gt;" class="cls-3" d="M326.8,608.9s41,7.6,62.9,17c19.2,8.3,18.6,16.9,19.1,25.7.3,5.1-3.3,17.7-17.9,19.9-17.4,2.6-37.9-.2-64.1-16.9Z" transform="translate(-71.1 -123.49)"/><path id="_Path_52" data-name="&lt;Path&gt;" class="cls-4" d="M408.8,651.6c-.4-7.1-.1-14.1-10.1-20.9a61.49,61.49,0,0,1,.6,7.4c.3,5.1-3.3,17.7-17.9,19.9-15.2,2.3-32.9.4-54.6-11.3v7.8c26.2,16.7,46.7,19.4,64.1,16.9C405.6,669.3,409.1,656.6,408.8,651.6Z" transform="translate(-71.1 -123.49)"/><path id="_Path_53" data-name="&lt;Path&gt;" class="cls-5" d="M326.8,608.9s41,7.6,62.9,17c19.2,8.3,18.6,16.9,19.1,25.7.3,5.1-3.3,17.7-17.9,19.9-17.4,2.6-37.9-.2-64.1-16.9Z" transform="translate(-71.1 -123.49)"/><path id="_Path_54" data-name="&lt;Path&gt;" class="cls-5" d="M364.8,632.4c3.3,1.8,2.5,19.3-5.5,21.7" transform="translate(-71.1 -123.49)"/><path id="_Path_55" data-name="&lt;Path&gt;" class="cls-5" d="M352.3,631.1c3.4,4.8,1,16.1-5.1,18.9" transform="translate(-71.1 -123.49)"/><path id="_Path_56" data-name="&lt;Path&gt;" class="cls-5" d="M340.8,627.1c3.4,4.8,1,16.1-5.1,18.9" transform="translate(-71.1 -123.49)"/></g><line id="_Path_57" data-name="&lt;Path&gt;" class="cls-19" x1="195.7" y1="232.21" x2="195.7" y2="285.41"/><line id="_Path_58" data-name="&lt;Path&gt;" class="cls-19" x1="263.2" y1="232.21" x2="263.2" y2="269.71"/><circle id="_Path_59" data-name="&lt;Path&gt;" class="cls-20" cx="263.2" cy="272.71" r="8.3"/><circle id="_Path_60" data-name="&lt;Path&gt;" class="cls-21" cx="263.2" cy="271.71" r="3.4"/><g id="_Group_12" data-name="&lt;Group&gt;"><path id="_Path_61" data-name="&lt;Path&gt;" class="cls-13" d="M301.9,306.2h0a63.1,63.1,0,0,1-63.1-63.1V169.9H365v73.2A63.1,63.1,0,0,1,301.9,306.2Z" transform="translate(-71.1 -123.49)"/><path id="_Path_62" data-name="&lt;Path&gt;" class="cls-14" d="M301.9,297.5h0a63.1,63.1,0,0,1-63.1-63.1v8.7a63.1,63.1,0,0,0,63.1,63.1h0A63.1,63.1,0,0,0,365,243.1v-8.7A63.1,63.1,0,0,1,301.9,297.5Z" transform="translate(-71.1 -123.49)"/><path id="_Path_63" data-name="&lt;Path&gt;" class="cls-5" d="M301.9,306.2h0a63.1,63.1,0,0,1-63.1-63.1V169.9H365v73.2A63.1,63.1,0,0,1,301.9,306.2Z" transform="translate(-71.1 -123.49)"/><path id="_Path_64" data-name="&lt;Path&gt;" class="cls-14" d="M365.5,177.2c-.2-3.4-.4-6.9-.5-10.3-42,2-84.2,1.7-126.1-2-.3,3.9-.5,7.8-.8,11.7l5.8,5.2c1.6.8,3.7,1.9,5.6,2.9,8.4,4.4,20.1,10,31.3,12.2a59.81,59.81,0,0,0,12.8,1.1c18.9-.2,34.8-7.7,41.5-10.8a12.13,12.13,0,0,1,2.3-1,2.9,2.9,0,0,1,1.4-.3,27.36,27.36,0,0,1,4.3.6,26,26,0,0,0,7.7.8,18.39,18.39,0,0,0,9.2-3.1C361.7,181.8,363.6,179.5,365.5,177.2Z" transform="translate(-71.1 -123.49)"/><path id="_Path_65" data-name="&lt;Path&gt;" class="cls-22" d="M335.1,139.2s-50.5-33.3-92.3,3.9c-7.8,6.9-10.9,16.8-10.9,25.9v48.2h7v-35c0-2.6,1.8-4.6,4-4.6h0c3.6,0,23.1,10.4,39.6,13.3,24.9,4.3,47.6-7.2,52.5-8.9,8.4-3,15.2,7.4,25.8-4.3h.4c2.2,0,4,2.1,4,4.6v35h7v-48C372,157.5,358.4,127.9,335.1,139.2Z" transform="translate(-71.1 -123.49)"/><g id="_Group_13" data-name="&lt;Group&gt;" class="cls-23"><rect id="_Path_66" data-name="&lt;Path&gt;" class="cls-22" x="160.7" y="87.11" width="7" height="6.6"/><rect id="_Path_67" data-name="&lt;Path&gt;" class="cls-22" x="293.9" y="87.11" width="7" height="6.6"/></g><path id="_Path_68" data-name="&lt;Path&gt;" class="cls-5" d="M335.1,139.2s-50.5-33.3-92.3,3.9c-7.8,6.9-10.9,16.8-10.9,25.9v48.2h7v-35c0-2.6,1.8-4.6,4-4.6h0c3.6,0,23.1,10.4,39.6,13.3,24.9,4.3,47.6-7.2,52.5-8.9,8.4-3,15.2,7.4,25.8-4.3h.4c2.2,0,4,2.1,4,4.6v35h7v-48C372,157.5,358.4,127.9,335.1,139.2Z" transform="translate(-71.1 -123.49)"/><path id="_Path_69" data-name="&lt;Path&gt;" class="cls-5" d="M292.4,171.7s-54.2,3.5-65.7-25.3" transform="translate(-71.1 -123.49)"/><path id="_Path_70" data-name="&lt;Path&gt;" class="cls-5" d="M300.1,164.8s-52.2-3.3-65.8-32.1" transform="translate(-71.1 -123.49)"/><path id="_Path_71" data-name="&lt;Path&gt;" class="cls-13" d="M365,209.4v32.8c7,0,12.6-7.3,12.6-16.4h0C377.6,216.7,372,209.4,365,209.4Z" transform="translate(-71.1 -123.49)"/><path id="_Path_72" data-name="&lt;Path&gt;" class="cls-14" d="M365,211.2v29.1c4.1-2.7,6.9-8.2,6.9-14.6h0C371.9,219.4,369.1,213.9,365,211.2Z" transform="translate(-71.1 -123.49)"/><path id="_Path_73" data-name="&lt;Path&gt;" class="cls-5" d="M365,209.4v32.8c7,0,12.6-7.3,12.6-16.4h0C377.6,216.7,372,209.4,365,209.4Z" transform="translate(-71.1 -123.49)"/><path id="_Path_74" data-name="&lt;Path&gt;" class="cls-13" d="M238.9,209.4v32.8c-7,0-12.6-7.3-12.6-16.4h0C226.2,216.7,231.9,209.4,238.9,209.4Z" transform="translate(-71.1 -123.49)"/><path id="_Path_75" data-name="&lt;Path&gt;" class="cls-14" d="M238.9,211.8c-3.6,2.9-6.1,8.1-6.1,14h0c0,5.9,2.4,11.1,6.1,14Z" transform="translate(-71.1 -123.49)"/><path id="_Path_76" data-name="&lt;Path&gt;" class="cls-5" d="M238.9,209.4v32.8c-7,0-12.6-7.3-12.6-16.4h0C226.2,216.7,231.9,209.4,238.9,209.4Z" transform="translate(-71.1 -123.49)"/><path id="_Path_77" data-name="&lt;Path&gt;" class="cls-5" d="M299.3,236.1l-4.2,13.7c0,1.5,4.9.3,9.9,1.5" transform="translate(-71.1 -123.49)"/><path id="_Path_78" data-name="&lt;Path&gt;" class="cls-24" d="M322.9,261.7c1.5,10.4-11.9,19.6-22.4,17.7" transform="translate(-71.1 -123.49)"/><g id="_Group_14" data-name="&lt;Group&gt;"><ellipse id="_Path_79" data-name="&lt;Path&gt;" class="cls-25" cx="208.1" cy="96.51" rx="4.2" ry="4.5"/><ellipse id="_Path_80" data-name="&lt;Path&gt;" class="cls-20" cx="208.1" cy="96.51" rx="4.2" ry="4.5"/><path id="_Path_81" data-name="&lt;Path&gt;" class="cls-24" d="M264.7,210.5c2.1-2.5,7-4.2,12.8-4.2,4.6,0,8.6,1.1,11.1,2.8" transform="translate(-71.1 -123.49)"/></g><g id="_Group_15" data-name="&lt;Group&gt;"><ellipse id="_Path_82" data-name="&lt;Path&gt;" class="cls-25" cx="254.1" cy="96.51" rx="4.2" ry="4.5"/><ellipse id="_Path_83" data-name="&lt;Path&gt;" class="cls-20" cx="254.1" cy="96.51" rx="4.2" ry="4.5"/><path id="_Path_84" data-name="&lt;Path&gt;" class="cls-24" d="M339.7,210.5c-2.1-2.5-7-4.2-12.8-4.2-4.6,0-8.6,1.1-11.1,2.8" transform="translate(-71.1 -123.49)"/></g></g></g></svg>