<svg id="Layer_1" data-name="Layer 1" xmlns="http://www.w3.org/2000/svg" viewBox="0 0 788.9 687.4"><defs><style>.cls-1,.cls-2,.cls-6,.cls-7,.cls-8{fill:none;}.cls-1{stroke:#cfcfce;}.cls-1,.cls-2,.cls-7,.cls-8{stroke-linecap:round;stroke-linejoin:round;}.cls-1,.cls-2{stroke-width:6px;}.cls-2,.cls-7,.cls-8{stroke:#00364c;}.cls-3{fill:#d2d2d2;}.cls-4{fill:#48bb8b;}.cls-5{fill:#f6bf47;}.cls-6{stroke:#f6bf47;stroke-miterlimit:10;opacity:0.68;isolation:isolate;}.cls-7{stroke-width:3px;}.cls-8{stroke-width:4px;}.cls-9{fill:#fff;}.cls-10{fill:#00364c;}.cls-11{fill:#f6f6f4;}</style></defs><title>scale</title><g id="_Group_" data-name="&lt;Group&gt;"><path id="_Path_" data-name="&lt;Path&gt;" class="cls-1" d="M294.7,430.5l139,114.2a18.7,18.7,0,0,0,23.8,0h0a18.71,18.71,0,0,0,0-28.9l-150-123.2a20.19,20.19,0,0,0-25.6,0L132,515.7a18.71,18.71,0,0,0,0,28.9h0a18.7,18.7,0,0,0,23.8,0Z" transform="translate(50.9 -29)"/><polygon id="_Path_2" data-name="&lt;Path&gt;" class="cls-1" points="345.6 401.5 231.4 495.3 241.3 684.4 450 684.4 459.8 495.3 345.6 401.5"/><path id="_Path_3" data-name="&lt;Path&gt;" class="cls-1" d="M294.7,552.2h0c-40.7,0-72.6,27.3-71.4,60l3.8,101.2H362.3l3.8-101.2C367.3,579.5,335.4,552.2,294.7,552.2Z" transform="translate(50.9 -29)"/><path id="_Path_4" data-name="&lt;Path&gt;" class="cls-1" d="M274,519a8.79,8.79,0,0,0,11.4,4.6,25.66,25.66,0,0,1,9.3-1.8,23.72,23.72,0,0,1,9.3,1.8,8.79,8.79,0,0,0,11.4-4.6,17.11,17.11,0,0,0,1.4-6.7c0-10.6-9.9-19.1-22.2-19.1s-22.2,8.6-22.2,19.1A18.81,18.81,0,0,0,274,519Z" transform="translate(50.9 -29)"/><ellipse id="_Path_5" data-name="&lt;Path&gt;" class="cls-1" cx="268.05" cy="484.6" rx="7.8" ry="6.6" transform="translate(-191.11 239.9) rotate(-38.13)"/><ellipse id="_Path_6" data-name="&lt;Path&gt;" class="cls-1" cx="345.6" cy="446.6" rx="10.2" ry="6.9"/><ellipse id="_Path_7" data-name="&lt;Path&gt;" class="cls-1" cx="318.94" cy="487.28" rx="6.6" ry="7.8" transform="translate(-210.39 408.31) rotate(-51.87)"/></g><line id="_Path_8" data-name="&lt;Path&gt;" class="cls-2" x1="78.4" y1="684.2" x2="89.9" y2="684.2"/><path id="_Path_9" data-name="&lt;Path&gt;" class="cls-3" d="M334.2,554.8c2.9-17.4,9.8-37.4,18-54.1-11.4,18.6-21.7,45.1-25.4,67.5-5.7,34.1-3.8,65.4,4.9,85.3l5.2-18.8C330.1,614.8,329,586,334.2,554.8Z" transform="translate(50.9 -29)"/><g id="_Group_2" data-name="&lt;Group&gt;"><path id="_Path_10" data-name="&lt;Path&gt;" class="cls-4" d="M94.4,383.2c-28.6-2-29.6,31-24.6,53,2,12-11,19-16.9,28.2a43.08,43.08,0,0,0-6,14.7C43.6,495,53,508.5,54.5,523a32.23,32.23,0,0,1-.6,11.1,66.35,66.35,0,0,1-5.1,12.1c-16,18-42,39-24,63a76.56,76.56,0,0,0,10.8,11.2c31.2,26.8,78.2,24.8,114.2,7.8,13-7,26-17,29-32,2-16-5-31-15.7-41.6a94,94,0,0,0-10.3-9.7,34.4,34.4,0,0,1-5-11.5c-1.9-9.2,1-17.8,3.8-26.5a85.24,85.24,0,0,0,3.4-13.2c3.8-22.6-18.2-36.6-30.2-52.6-5-7-3-16-1-24a28,28,0,0,0-28.9-34" transform="translate(50.9 -29)"/><path id="_Path_11" data-name="&lt;Path&gt;" class="cls-2" d="M98.9,477.9c-4.6,21.7-5.6,43-5,64.3.2,5.3,13.9,94,5.1,132.8-.2,5.6-.2,8.9-.2,8.9" transform="translate(50.9 -29)"/><line id="_Path_12" data-name="&lt;Path&gt;" class="cls-2" x1="164.7" y1="532.8" x2="149.8" y2="554.3"/><path id="_Path_13" data-name="&lt;Path&gt;" class="cls-5" d="M122.8,716.2h-46a1.19,1.19,0,0,1-1.2-1L63.8,665.4h72L124,715.3A1.2,1.2,0,0,1,122.8,716.2Z" transform="translate(50.9 -29)"/><line id="_Path_14" data-name="&lt;Path&gt;" class="cls-6" x1="121.9" y1="664" x2="179.5" y2="664"/><line id="_Path_15" data-name="&lt;Path&gt;" class="cls-6" x1="122.8" y1="667.6" x2="178.6" y2="667.6"/></g><line id="_Path_16" data-name="&lt;Path&gt;" class="cls-2" x1="393.3" y1="673" x2="393.3" y2="684"/><ellipse id="_Path_17" data-name="&lt;Path&gt;" class="cls-4" cx="80.2" cy="489.2" rx="10.7" ry="17.4"/><rect id="_Path_18" data-name="&lt;Path&gt;" class="cls-4" x="628.41" y="599.23" width="14" height="14" transform="translate(-191.66 597.86) rotate(-45)"/><rect id="_Path_19" data-name="&lt;Path&gt;" class="cls-4" x="564.1" y="311.96" width="9" height="9" transform="translate(-6.33 465.75) rotate(-45)"/><g id="_Group_3" data-name="&lt;Group&gt;"><g id="_Group_4" data-name="&lt;Group&gt;"><line id="_Path_20" data-name="&lt;Path&gt;" class="cls-7" x1="117" y1="156.3" x2="117" y2="170.6"/><line id="_Path_21" data-name="&lt;Path&gt;" class="cls-7" x1="117" y1="188.7" x2="117" y2="203"/></g><g id="_Group_5" data-name="&lt;Group&gt;"><line id="_Path_22" data-name="&lt;Path&gt;" class="cls-7" x1="96.7" y1="168" x2="109.1" y2="175.1"/><line id="_Path_23" data-name="&lt;Path&gt;" class="cls-7" x1="124.9" y1="184.2" x2="137.3" y2="191.3"/></g><g id="_Group_6" data-name="&lt;Group&gt;"><line id="_Path_24" data-name="&lt;Path&gt;" class="cls-7" x1="96.7" y1="191.3" x2="109.1" y2="184.2"/><line id="_Path_25" data-name="&lt;Path&gt;" class="cls-7" x1="124.9" y1="175.1" x2="137.3" y2="168"/></g></g><g id="_Group_7" data-name="&lt;Group&gt;"><line id="_Path_26" data-name="&lt;Path&gt;" class="cls-7" x1="743" y1="217.4" x2="743" y2="227.3"/><line id="_Path_27" data-name="&lt;Path&gt;" class="cls-7" x1="743" y1="239.9" x2="743" y2="249.9"/></g><g id="_Group_8" data-name="&lt;Group&gt;"><line id="_Path_28" data-name="&lt;Path&gt;" class="cls-7" x1="729" y1="225.5" x2="737.6" y2="230.5"/><line id="_Path_29" data-name="&lt;Path&gt;" class="cls-7" x1="748.5" y1="236.8" x2="757.1" y2="241.7"/></g><g id="_Group_9" data-name="&lt;Group&gt;"><line id="_Path_30" data-name="&lt;Path&gt;" class="cls-7" x1="729" y1="241.7" x2="737.6" y2="236.8"/><line id="_Path_31" data-name="&lt;Path&gt;" class="cls-7" x1="748.5" y1="230.5" x2="757.1" y2="225.5"/></g><circle id="_Path_32" data-name="&lt;Path&gt;" class="cls-5" cx="666.4" cy="364.8" r="15.1"/><g id="_Group_10" data-name="&lt;Group&gt;"><g id="_Group_11" data-name="&lt;Group&gt;"><line id="_Path_33" data-name="&lt;Path&gt;" class="cls-7" x1="666.4" y1="342.8" x2="666.4" y2="354.9"/><line id="_Path_34" data-name="&lt;Path&gt;" class="cls-7" x1="666.4" y1="374.6" x2="666.4" y2="386.7"/></g><g id="_Group_12" data-name="&lt;Group&gt;"><line id="_Path_35" data-name="&lt;Path&gt;" class="cls-7" x1="647.4" y1="353.8" x2="657.9" y2="359.8"/><line id="_Path_36" data-name="&lt;Path&gt;" class="cls-7" x1="675" y1="369.7" x2="685.5" y2="375.7"/></g><g id="_Group_13" data-name="&lt;Group&gt;"><line id="_Path_37" data-name="&lt;Path&gt;" class="cls-7" x1="647.4" y1="376.4" x2="657.9" y2="369.7"/><line id="_Path_38" data-name="&lt;Path&gt;" class="cls-7" x1="675" y1="359.8" x2="685.5" y2="353.8"/></g></g><line id="_Path_39" data-name="&lt;Path&gt;" class="cls-8" x1="440.4" y1="40.9" x2="440.4" y2="55.6"/><line id="_Path_40" data-name="&lt;Path&gt;" class="cls-8" x1="447.7" y1="48.2" x2="433.1" y2="48.2"/><line id="_Path_41" data-name="&lt;Path&gt;" class="cls-8" x1="779.6" y1="555.1" x2="779.6" y2="569.8"/><line id="_Path_42" data-name="&lt;Path&gt;" class="cls-8" x1="786.9" y1="562.5" x2="772.2" y2="562.5"/><line id="_Path_43" data-name="&lt;Path&gt;" class="cls-8" x1="265.1" y1="296" x2="265.1" y2="305"/><line id="_Path_44" data-name="&lt;Path&gt;" class="cls-8" x1="269.6" y1="300.5" x2="260.6" y2="300.5"/><rect id="_Path_45" data-name="&lt;Path&gt;" class="cls-5" x="167.32" y="397.35" width="10" height="10" transform="translate(-183.14 210.69) rotate(-45)"/><line id="_Path_46" data-name="&lt;Path&gt;" class="cls-8" x1="2" y1="331.2" x2="28.4" y2="331.2"/><line id="_Path_47" data-name="&lt;Path&gt;" class="cls-8" x1="37.4" y1="331.2" x2="47.5" y2="331.2"/><line id="_Path_48" data-name="&lt;Path&gt;" class="cls-8" x1="16.7" y1="344" x2="45.9" y2="344"/><line id="_Path_49" data-name="&lt;Path&gt;" class="cls-8" x1="574.1" y1="455.1" x2="600.4" y2="455.1"/><line id="_Path_50" data-name="&lt;Path&gt;" class="cls-8" x1="609.4" y1="455.1" x2="619.5" y2="455.1"/><line id="_Path_51" data-name="&lt;Path&gt;" class="cls-8" x1="588.7" y1="465.8" x2="618" y2="465.8"/><line id="_Path_52" data-name="&lt;Path&gt;" class="cls-2" x1="654.9" y1="684.2" x2="696.2" y2="684.2"/><line id="_Path_53" data-name="&lt;Path&gt;" class="cls-2" x1="110.9" y1="684.2" x2="193.6" y2="684.2"/><circle id="_Path_54" data-name="&lt;Path&gt;" class="cls-5" cx="590.4" cy="92.7" r="51.7"/><circle id="_Path_55" data-name="&lt;Path&gt;" class="cls-5" cx="642.1" cy="51.7" r="51.7"/><circle id="_Path_56" data-name="&lt;Path&gt;" class="cls-5" cx="713.8" cy="70.2" r="47.2"/><circle id="_Path_57" data-name="&lt;Path&gt;" class="cls-5" cx="642.1" cy="122" r="51.5"/><circle id="_Path_58" data-name="&lt;Path&gt;" class="cls-5" cx="696.9" cy="122" r="34.3"/><path id="_Path_59" data-name="&lt;Path&gt;" class="cls-5" d="M537.8,256.6c0,7.8-2,12.5-9.8,12.5s-14.2-3-14.2-10.8,4.1-14.8,12-14.8S537.8,248.8,537.8,256.6Z" transform="translate(50.9 -29)"/><path id="_Path_60" data-name="&lt;Path&gt;" class="cls-5" d="M565.9,217.7c0,11.8-2.9,18.8-14.7,18.8S530,232,530,220.2a21.25,21.25,0,0,1,21.3-21.3C563.1,198.9,565.9,206,565.9,217.7Z" transform="translate(50.9 -29)"/><path id="_Path_61" data-name="&lt;Path&gt;" class="cls-9" d="M556,569.2q.3,4.05.3,8.1c0,55.9-45,101.3-100.5,101.3-46.6,0-85.8-32-97.2-75.4,4.1,52.1,47.4,93.2,100.2,93.2,55.5,0,100.5-45.3,100.5-101.3A96.31,96.31,0,0,0,556,569.2Z" transform="translate(50.9 -29)"/><path id="_Path_62" data-name="&lt;Path&gt;" class="cls-2" d="M556,569.2q.3,4.05.3,8.1c0,55.9-45,101.3-100.5,101.3-46.6,0-85.8-32-97.2-75.4,4.1,52.1,47.4,93.2,100.2,93.2,55.5,0,100.5-45.3,100.5-101.3A96.31,96.31,0,0,0,556,569.2Z" transform="translate(50.9 -29)"/><path id="_Path_63" data-name="&lt;Path&gt;" class="cls-9" d="M380.3,478.2c-17-7.6-46.6,48.4-53.5,90-5.7,34.1-3.8,65.4,4.9,85.3Z" transform="translate(50.9 -29)"/><path id="_Path_64" data-name="&lt;Path&gt;" class="cls-2" d="M380.3,478.2c-17-7.6-46.6,48.4-53.5,90-5.7,34.1-3.8,65.4,4.9,85.3Z" transform="translate(50.9 -29)"/><path id="_Path_65" data-name="&lt;Path&gt;" class="cls-9" d="M432.7,478.2c17-7.6,46.6,48.4,53.5,90,5.7,34.1,3.8,65.4-4.9,85.3Z" transform="translate(50.9 -29)"/><path id="_Path_66" data-name="&lt;Path&gt;" class="cls-3" d="M478.9,554.8c-2.9-17.4-9.8-37.4-18-54.1,11.4,18.6,21.7,45.1,25.4,67.5,5.7,34.1,3.8,65.4-4.9,85.3l-5.2-18.8C483,614.8,484,586,478.9,554.8Z" transform="translate(50.9 -29)"/><path id="_Path_67" data-name="&lt;Path&gt;" class="cls-2" d="M432.7,478.2c17-7.6,46.6,48.4,53.5,90,5.7,34.1,3.8,65.4-4.9,85.3Z" transform="translate(50.9 -29)"/><path id="_Path_68" data-name="&lt;Path&gt;" class="cls-9" d="M484.3,661c-1.1-16.6-44.3-196.8-56-205.8H385.5c-11.7,9-55,189.1-56,205.8-1.3,20.7-8.1,52.2,31.2,52.2h92.5C492.4,713.2,485.6,681.7,484.3,661Z" transform="translate(50.9 -29)"/><path id="_Path_69" data-name="&lt;Path&gt;" class="cls-3" d="M334.2,635.5s-3.1,26.4,11.7,36.1c11.6,7.7,21.8,10.8,40.9,14.3,10.3,1.9,21.5,2.7,21.5,2.7l1.2,23.7-81.4.6s-1.4-33.3.6-43.3S331.7,643.1,334.2,635.5Z" transform="translate(50.9 -29)"/><path id="_Path_70" data-name="&lt;Path&gt;" class="cls-3" d="M480.4,635.5s3.1,26.4-11.7,36.1c-11.6,7.7-21.8,10.8-40.9,14.3-10.3,1.9-21.5,2.7-21.5,2.7l-1.2,23.7,81.4.6s1.4-33.3-.6-43.3S482.9,643.1,480.4,635.5Z" transform="translate(50.9 -29)"/><path id="_Path_71" data-name="&lt;Path&gt;" class="cls-5" d="M442.6,491.5a26.63,26.63,0,0,0-7-1.1c-12.2,0-21.9,6.5-21.9,21.5s21.9,33,34.1,33a18.4,18.4,0,0,0,9.2-2.5C452.1,524,447.1,506.2,442.6,491.5Z" transform="translate(50.9 -29)"/><path id="_Path_72" data-name="&lt;Path&gt;" class="cls-5" d="M350.1,621.1c13.5,0,24.5-13.3,24.5-29.7,0-15.7-10.1-28.6-22.9-29.6-5,19.6-9.7,39-13.5,55.5A21.28,21.28,0,0,0,350.1,621.1Z" transform="translate(50.9 -29)"/><path id="_Path_73" data-name="&lt;Path&gt;" class="cls-3" d="M382.4,459.5s7.1,5.7,23.4,5.7c13.2,0,24.8-5.7,24.8-5.7l-1-3.9H383.1Z" transform="translate(50.9 -29)"/><path id="_Path_74" data-name="&lt;Path&gt;" class="cls-2" d="M484.3,661c-1.1-16.6-44.3-196.8-56-205.8H385.5c-11.7,9-55,189.1-56,205.8-1.3,20.7-8.1,52.2,31.2,52.2h92.5C492.4,713.2,485.6,681.7,484.3,661Z" transform="translate(50.9 -29)"/><path id="_Path_75" data-name="&lt;Path&gt;" class="cls-9" d="M482,383.2c-1.9-19.5-11.5-68.8-22.3-103.3-17.2-55.1-37.4-69.5-49.1-71a33.34,33.34,0,0,0-3.8-.2,34.32,34.32,0,0,0-3.8.2c-11.7,1.4-31.8,15.7-49.1,70.9-10.8,34.5-20.3,83.9-22.3,103.5-4.3,44,16.8,68.3,44.2,71.8,7.8,1,23.2,1,31,1s23.1,0,31-1C465.1,451.5,486.3,427.2,482,383.2Z" transform="translate(50.9 -29)"/><ellipse id="_Path_76" data-name="&lt;Path&gt;" class="cls-3" cx="457.7" cy="379.6" rx="18.9" ry="14.9"/><path id="_Path_77" data-name="&lt;Path&gt;" class="cls-3" d="M389.5,214.5s-9,33.9-27.8,43.7c4.8-10.8,11.3-23.7,11.3-23.7S384.2,216,389.5,214.5Z" transform="translate(50.9 -29)"/><path id="_Path_78" data-name="&lt;Path&gt;" class="cls-3" d="M410.6,209s24.4,42,44.7,58.1c0,0-4.6-29.8-9.1-38.8S419.7,206.2,410.6,209Z" transform="translate(50.9 -29)"/><path id="_Path_79" data-name="&lt;Path&gt;" class="cls-5" d="M358.8,370.3c39.3-16.9,62.8-50.2,52.4-74.3-7.3-16.9-29.3-24.8-55.3-22.2-.6,1.9-1.3,3.9-1.9,6-10,32-18.9,76.7-21.7,98.6A121.51,121.51,0,0,0,358.8,370.3Z" transform="translate(50.9 -29)"/><path id="_Path_80" data-name="&lt;Path&gt;" class="cls-2" d="M463.1,416.1c-11.2,16.3-35.7,27.3-61.8,27.3-24.2,0-38.7-14.2-47.2-31.9" transform="translate(50.9 -29)"/><ellipse id="_Path_81" data-name="&lt;Path&gt;" class="cls-10" cx="457.7" cy="377" rx="23.7" ry="12.2"/><path id="_Path_82" data-name="&lt;Path&gt;" class="cls-9" d="M536.9,706.9c-15.2-14.3-44.4-21.4-72.9-19.2-24.4,1.8-42.5,10.1-49.6,21.1a2.93,2.93,0,0,0,2.6,4.4H532.5C537,713.2,539.7,709.5,536.9,706.9Z" transform="translate(50.9 -29)"/><path id="_Path_83" data-name="&lt;Path&gt;" class="cls-3" d="M536.1,706.7a3.6,3.6,0,0,1-1.1.2H419.5a6.27,6.27,0,0,1-3.5-.9c-.3.3-.7.6-1,.9-2.8,2.6-.1,6.3,4.5,6.3H535a3,3,0,0,0,2.6-4.4A19.07,19.07,0,0,0,536.1,706.7Z" transform="translate(50.9 -29)"/><path id="_Path_84" data-name="&lt;Path&gt;" class="cls-2" d="M536.9,706.9c-15.2-14.3-44.4-21.4-72.9-19.2-24.4,1.8-42.5,10.1-49.6,21.1a2.93,2.93,0,0,0,2.6,4.4H532.5C537,713.2,539.7,709.5,536.9,706.9Z" transform="translate(50.9 -29)"/><line id="_Path_85" data-name="&lt;Path&gt;" class="cls-2" x1="525.3" y1="673" x2="525.3" y2="684"/><path id="_Path_86" data-name="&lt;Path&gt;" class="cls-9" d="M280,706.9c15.2-14.3,44.4-21.4,72.9-19.2,24.4,1.8,42.5,10.1,49.6,21.1a2.93,2.93,0,0,1-2.6,4.4H284.4C279.9,713.2,277.2,709.5,280,706.9Z" transform="translate(50.9 -29)"/><path id="_Path_87" data-name="&lt;Path&gt;" class="cls-3" d="M401.1,706.7a3.6,3.6,0,0,1-1.1.2H284.5a6.27,6.27,0,0,1-3.5-.9c-.3.3-.7.6-1,.9-2.8,2.6-.1,6.3,4.5,6.3H400a3,3,0,0,0,2.6-4.4A19.07,19.07,0,0,0,401.1,706.7Z" transform="translate(50.9 -29)"/><path id="_Path_88" data-name="&lt;Path&gt;" class="cls-2" d="M280,706.9c15.2-14.3,44.4-21.4,72.9-19.2,24.4,1.8,42.5,10.1,49.6,21.1a2.93,2.93,0,0,1-2.6,4.4H284.4C279.9,713.2,277.2,709.5,280,706.9Z" transform="translate(50.9 -29)"/><path id="_Path_89" data-name="&lt;Path&gt;" class="cls-2" d="M482,383.2c-1.9-19.5-11.5-68.8-22.3-103.3-17.2-55.1-37.4-69.5-49.1-71a33.34,33.34,0,0,0-3.8-.2,34.32,34.32,0,0,0-3.8.2c-11.7,1.4-31.8,15.7-49.1,70.9-10.8,34.5-20.3,83.9-22.3,103.5-4.3,44,16.8,68.3,44.2,71.8,7.8,1,23.2,1,31,1s23.1,0,31-1C465.1,451.5,486.3,427.2,482,383.2Z" transform="translate(50.9 -29)"/><path id="_Path_90" data-name="&lt;Path&gt;" class="cls-9" d="M408.8,208.5s34.9-7.4,44.5-2.9c9.9,4.6,27.8,39.7,20.4,53.4C462.4,280,429.2,204,408.8,208.5Z" transform="translate(50.9 -29)"/><path id="_Path_91" data-name="&lt;Path&gt;" class="cls-2" d="M408.8,208.5s34.9-7.4,44.5-2.9c9.9,4.6,27.8,39.7,20.4,53.4C462.4,280,429.2,204,408.8,208.5Z" transform="translate(50.9 -29)"/><path id="_Path_92" data-name="&lt;Path&gt;" class="cls-9" d="M343.3,214.8l48.3-1.4s-44.8,48.2-65.5,58.6S326.6,214.7,343.3,214.8Z" transform="translate(50.9 -29)"/><path id="_Path_93" data-name="&lt;Path&gt;" class="cls-2" d="M343.3,214.8l48.3-1.4s-44.8,48.2-65.5,58.6S326.6,214.7,343.3,214.8Z" transform="translate(50.9 -29)"/><ellipse id="_Path_94" data-name="&lt;Path&gt;" class="cls-10" cx="438.6" cy="287.5" rx="5" ry="6.5"/><ellipse id="_Path_95" data-name="&lt;Path&gt;" class="cls-10" cx="480.8" cy="287.5" rx="5" ry="6.5"/><line id="_Path_96" data-name="&lt;Path&gt;" class="cls-2" x1="282.2" y1="684.2" x2="628.9" y2="684.2"/><path id="_Path_97" data-name="&lt;Path&gt;" class="cls-5" d="M507.2,276c0,5.6-1.4,8.9-7,8.9s-10.1-2.1-10.1-7.7a10.07,10.07,0,0,1,10.1-10.1C505.8,267.1,507.2,270.4,507.2,276Z" transform="translate(50.9 -29)"/><path id="_Path_98" data-name="&lt;Path&gt;" class="cls-11" d="M643.8,117a9.34,9.34,0,0,0,2.1-7c-.5-4.2-6.2-6.3-8.6-6.8-3.2-.6-9.9,2.3-9.9,7.8h0a2.35,2.35,0,0,1-2.3,2.4H579.6a2.33,2.33,0,0,1-2.3-2.3,9,9,0,0,0-.8-3.8c-1.3-3-4.6-3.4-7.5-3.7-5-.6-10.3,1.9-10.3,7.4a8.78,8.78,0,0,0,2.2,5.9,3,3,0,0,1,0,3.8,9.34,9.34,0,0,0-2.1,7c.5,4.2,4.5,6,8.3,6.4,5,.6,10.2-2,10.2-7.4h0a2.35,2.35,0,0,1,2.3-2.4h45.5a2.33,2.33,0,0,1,2.3,2.3,9,9,0,0,0,.8,3.8c1.3,3,6,3.7,7.8,4.1,3.2.6,9.9-2.3,9.9-7.8a8.78,8.78,0,0,0-2.2-5.9A3.15,3.15,0,0,1,643.8,117Z" transform="translate(50.9 -29)"/></svg>